<?xml version="1.0" encoding="utf-8" standalone="no"?>
<!DOCTYPE svg PUBLIC "-//W3C//DTD SVG 1.1//EN"
  "http://www.w3.org/Graphics/SVG/1.1/DTD/svg11.dtd">
<svg xmlns:xlink="http://www.w3.org/1999/xlink" width="360pt" height="360pt" viewBox="0 0 360 360" xmlns="http://www.w3.org/2000/svg" version="1.1">
 <metadata>
  <rdf:RDF xmlns:dc="http://purl.org/dc/elements/1.1/" xmlns:cc="http://creativecommons.org/ns#" xmlns:rdf="http://www.w3.org/1999/02/22-rdf-syntax-ns#">
   <cc:Work>
    <dc:type rdf:resource="http://purl.org/dc/dcmitype/StillImage"/>
    <dc:date>2023-02-10T11:52:20.345354</dc:date>
    <dc:format>image/svg+xml</dc:format>
    <dc:creator>
     <cc:Agent>
      <dc:title>Matplotlib v3.5.1, https://matplotlib.org/</dc:title>
     </cc:Agent>
    </dc:creator>
   </cc:Work>
  </rdf:RDF>
 </metadata>
 <defs>
  <style type="text/css">*{stroke-linejoin: round; stroke-linecap: butt}</style>
 </defs>
 <g id="figure_1">
  <g id="patch_1">
   <path d="M 0 360 
L 360 360 
L 360 0 
L 0 0 
z
" style="fill: #ffffff"/>
  </g>
  <g id="axes_1">
   <g id="patch_2">
    <path d="M 45 320.4 
L 324 320.4 
L 324 43.2 
L 45 43.2 
z
" style="fill: #ffffff"/>
   </g>
   <g id="matplotlib.axis_1">
    <g id="xtick_1">
     <g id="line2d_1">
      <path d="M 57.590339 320.4 
L 57.590339 43.2 
" clip-path="url(#pb1793dd5b4)" style="fill: none; stroke: #b0b0b0; stroke-width: 0.8; stroke-linecap: square"/>
     </g>
     <g id="line2d_2">
      <defs>
       <path id="mf25b8da60b" d="M 0 0 
L 0 3.5 
" style="stroke: #000000; stroke-width: 0.8"/>
      </defs>
      <g>
       <use xlink:href="#mf25b8da60b" x="57.590339" y="320.4" style="stroke: #000000; stroke-width: 0.8"/>
      </g>
     </g>
     <g id="text_1">
      <!-- 0 -->
      <g transform="translate(54.409089 334.998438)scale(0.1 -0.1)">
       <defs>
        <path id="DejaVuSans-30" d="M 2034 4250 
Q 1547 4250 1301 3770 
Q 1056 3291 1056 2328 
Q 1056 1369 1301 889 
Q 1547 409 2034 409 
Q 2525 409 2770 889 
Q 3016 1369 3016 2328 
Q 3016 3291 2770 3770 
Q 2525 4250 2034 4250 
z
M 2034 4750 
Q 2819 4750 3233 4129 
Q 3647 3509 3647 2328 
Q 3647 1150 3233 529 
Q 2819 -91 2034 -91 
Q 1250 -91 836 529 
Q 422 1150 422 2328 
Q 422 3509 836 4129 
Q 1250 4750 2034 4750 
z
" transform="scale(0.015625)"/>
       </defs>
       <use xlink:href="#DejaVuSans-30"/>
      </g>
     </g>
    </g>
    <g id="xtick_2">
     <g id="line2d_3">
      <path d="M 108.41214 320.4 
L 108.41214 43.2 
" clip-path="url(#pb1793dd5b4)" style="fill: none; stroke: #b0b0b0; stroke-width: 0.8; stroke-linecap: square"/>
     </g>
     <g id="line2d_4">
      <g>
       <use xlink:href="#mf25b8da60b" x="108.41214" y="320.4" style="stroke: #000000; stroke-width: 0.8"/>
      </g>
     </g>
     <g id="text_2">
      <!-- 10000 -->
      <g transform="translate(92.50589 334.998438)scale(0.1 -0.1)">
       <defs>
        <path id="DejaVuSans-31" d="M 794 531 
L 1825 531 
L 1825 4091 
L 703 3866 
L 703 4441 
L 1819 4666 
L 2450 4666 
L 2450 531 
L 3481 531 
L 3481 0 
L 794 0 
L 794 531 
z
" transform="scale(0.015625)"/>
       </defs>
       <use xlink:href="#DejaVuSans-31"/>
       <use xlink:href="#DejaVuSans-30" x="63.623047"/>
       <use xlink:href="#DejaVuSans-30" x="127.246094"/>
       <use xlink:href="#DejaVuSans-30" x="190.869141"/>
       <use xlink:href="#DejaVuSans-30" x="254.492188"/>
      </g>
     </g>
    </g>
    <g id="xtick_3">
     <g id="line2d_5">
      <path d="M 159.233941 320.4 
L 159.233941 43.2 
" clip-path="url(#pb1793dd5b4)" style="fill: none; stroke: #b0b0b0; stroke-width: 0.8; stroke-linecap: square"/>
     </g>
     <g id="line2d_6">
      <g>
       <use xlink:href="#mf25b8da60b" x="159.233941" y="320.4" style="stroke: #000000; stroke-width: 0.8"/>
      </g>
     </g>
     <g id="text_3">
      <!-- 20000 -->
      <g transform="translate(143.327691 334.998438)scale(0.1 -0.1)">
       <defs>
        <path id="DejaVuSans-32" d="M 1228 531 
L 3431 531 
L 3431 0 
L 469 0 
L 469 531 
Q 828 903 1448 1529 
Q 2069 2156 2228 2338 
Q 2531 2678 2651 2914 
Q 2772 3150 2772 3378 
Q 2772 3750 2511 3984 
Q 2250 4219 1831 4219 
Q 1534 4219 1204 4116 
Q 875 4013 500 3803 
L 500 4441 
Q 881 4594 1212 4672 
Q 1544 4750 1819 4750 
Q 2544 4750 2975 4387 
Q 3406 4025 3406 3419 
Q 3406 3131 3298 2873 
Q 3191 2616 2906 2266 
Q 2828 2175 2409 1742 
Q 1991 1309 1228 531 
z
" transform="scale(0.015625)"/>
       </defs>
       <use xlink:href="#DejaVuSans-32"/>
       <use xlink:href="#DejaVuSans-30" x="63.623047"/>
       <use xlink:href="#DejaVuSans-30" x="127.246094"/>
       <use xlink:href="#DejaVuSans-30" x="190.869141"/>
       <use xlink:href="#DejaVuSans-30" x="254.492188"/>
      </g>
     </g>
    </g>
    <g id="xtick_4">
     <g id="line2d_7">
      <path d="M 210.055743 320.4 
L 210.055743 43.2 
" clip-path="url(#pb1793dd5b4)" style="fill: none; stroke: #b0b0b0; stroke-width: 0.8; stroke-linecap: square"/>
     </g>
     <g id="line2d_8">
      <g>
       <use xlink:href="#mf25b8da60b" x="210.055743" y="320.4" style="stroke: #000000; stroke-width: 0.8"/>
      </g>
     </g>
     <g id="text_4">
      <!-- 30000 -->
      <g transform="translate(194.149493 334.998438)scale(0.1 -0.1)">
       <defs>
        <path id="DejaVuSans-33" d="M 2597 2516 
Q 3050 2419 3304 2112 
Q 3559 1806 3559 1356 
Q 3559 666 3084 287 
Q 2609 -91 1734 -91 
Q 1441 -91 1130 -33 
Q 819 25 488 141 
L 488 750 
Q 750 597 1062 519 
Q 1375 441 1716 441 
Q 2309 441 2620 675 
Q 2931 909 2931 1356 
Q 2931 1769 2642 2001 
Q 2353 2234 1838 2234 
L 1294 2234 
L 1294 2753 
L 1863 2753 
Q 2328 2753 2575 2939 
Q 2822 3125 2822 3475 
Q 2822 3834 2567 4026 
Q 2313 4219 1838 4219 
Q 1578 4219 1281 4162 
Q 984 4106 628 3988 
L 628 4550 
Q 988 4650 1302 4700 
Q 1616 4750 1894 4750 
Q 2613 4750 3031 4423 
Q 3450 4097 3450 3541 
Q 3450 3153 3228 2886 
Q 3006 2619 2597 2516 
z
" transform="scale(0.015625)"/>
       </defs>
       <use xlink:href="#DejaVuSans-33"/>
       <use xlink:href="#DejaVuSans-30" x="63.623047"/>
       <use xlink:href="#DejaVuSans-30" x="127.246094"/>
       <use xlink:href="#DejaVuSans-30" x="190.869141"/>
       <use xlink:href="#DejaVuSans-30" x="254.492188"/>
      </g>
     </g>
    </g>
    <g id="xtick_5">
     <g id="line2d_9">
      <path d="M 260.877544 320.4 
L 260.877544 43.2 
" clip-path="url(#pb1793dd5b4)" style="fill: none; stroke: #b0b0b0; stroke-width: 0.8; stroke-linecap: square"/>
     </g>
     <g id="line2d_10">
      <g>
       <use xlink:href="#mf25b8da60b" x="260.877544" y="320.4" style="stroke: #000000; stroke-width: 0.8"/>
      </g>
     </g>
     <g id="text_5">
      <!-- 40000 -->
      <g transform="translate(244.971294 334.998438)scale(0.1 -0.1)">
       <defs>
        <path id="DejaVuSans-34" d="M 2419 4116 
L 825 1625 
L 2419 1625 
L 2419 4116 
z
M 2253 4666 
L 3047 4666 
L 3047 1625 
L 3713 1625 
L 3713 1100 
L 3047 1100 
L 3047 0 
L 2419 0 
L 2419 1100 
L 313 1100 
L 313 1709 
L 2253 4666 
z
" transform="scale(0.015625)"/>
       </defs>
       <use xlink:href="#DejaVuSans-34"/>
       <use xlink:href="#DejaVuSans-30" x="63.623047"/>
       <use xlink:href="#DejaVuSans-30" x="127.246094"/>
       <use xlink:href="#DejaVuSans-30" x="190.869141"/>
       <use xlink:href="#DejaVuSans-30" x="254.492188"/>
      </g>
     </g>
    </g>
    <g id="xtick_6">
     <g id="line2d_11">
      <path d="M 311.699345 320.4 
L 311.699345 43.2 
" clip-path="url(#pb1793dd5b4)" style="fill: none; stroke: #b0b0b0; stroke-width: 0.8; stroke-linecap: square"/>
     </g>
     <g id="line2d_12">
      <g>
       <use xlink:href="#mf25b8da60b" x="311.699345" y="320.4" style="stroke: #000000; stroke-width: 0.8"/>
      </g>
     </g>
     <g id="text_6">
      <!-- 50000 -->
      <g transform="translate(295.793095 334.998438)scale(0.1 -0.1)">
       <defs>
        <path id="DejaVuSans-35" d="M 691 4666 
L 3169 4666 
L 3169 4134 
L 1269 4134 
L 1269 2991 
Q 1406 3038 1543 3061 
Q 1681 3084 1819 3084 
Q 2600 3084 3056 2656 
Q 3513 2228 3513 1497 
Q 3513 744 3044 326 
Q 2575 -91 1722 -91 
Q 1428 -91 1123 -41 
Q 819 9 494 109 
L 494 744 
Q 775 591 1075 516 
Q 1375 441 1709 441 
Q 2250 441 2565 725 
Q 2881 1009 2881 1497 
Q 2881 1984 2565 2268 
Q 2250 2553 1709 2553 
Q 1456 2553 1204 2497 
Q 953 2441 691 2322 
L 691 4666 
z
" transform="scale(0.015625)"/>
       </defs>
       <use xlink:href="#DejaVuSans-35"/>
       <use xlink:href="#DejaVuSans-30" x="63.623047"/>
       <use xlink:href="#DejaVuSans-30" x="127.246094"/>
       <use xlink:href="#DejaVuSans-30" x="190.869141"/>
       <use xlink:href="#DejaVuSans-30" x="254.492188"/>
      </g>
     </g>
    </g>
    <g id="text_7">
     <!-- Training Steps -->
     <g transform="translate(149.195312 348.676562)scale(0.1 -0.1)">
      <defs>
       <path id="DejaVuSans-54" d="M -19 4666 
L 3928 4666 
L 3928 4134 
L 2272 4134 
L 2272 0 
L 1638 0 
L 1638 4134 
L -19 4134 
L -19 4666 
z
" transform="scale(0.015625)"/>
       <path id="DejaVuSans-72" d="M 2631 2963 
Q 2534 3019 2420 3045 
Q 2306 3072 2169 3072 
Q 1681 3072 1420 2755 
Q 1159 2438 1159 1844 
L 1159 0 
L 581 0 
L 581 3500 
L 1159 3500 
L 1159 2956 
Q 1341 3275 1631 3429 
Q 1922 3584 2338 3584 
Q 2397 3584 2469 3576 
Q 2541 3569 2628 3553 
L 2631 2963 
z
" transform="scale(0.015625)"/>
       <path id="DejaVuSans-61" d="M 2194 1759 
Q 1497 1759 1228 1600 
Q 959 1441 959 1056 
Q 959 750 1161 570 
Q 1363 391 1709 391 
Q 2188 391 2477 730 
Q 2766 1069 2766 1631 
L 2766 1759 
L 2194 1759 
z
M 3341 1997 
L 3341 0 
L 2766 0 
L 2766 531 
Q 2569 213 2275 61 
Q 1981 -91 1556 -91 
Q 1019 -91 701 211 
Q 384 513 384 1019 
Q 384 1609 779 1909 
Q 1175 2209 1959 2209 
L 2766 2209 
L 2766 2266 
Q 2766 2663 2505 2880 
Q 2244 3097 1772 3097 
Q 1472 3097 1187 3025 
Q 903 2953 641 2809 
L 641 3341 
Q 956 3463 1253 3523 
Q 1550 3584 1831 3584 
Q 2591 3584 2966 3190 
Q 3341 2797 3341 1997 
z
" transform="scale(0.015625)"/>
       <path id="DejaVuSans-69" d="M 603 3500 
L 1178 3500 
L 1178 0 
L 603 0 
L 603 3500 
z
M 603 4863 
L 1178 4863 
L 1178 4134 
L 603 4134 
L 603 4863 
z
" transform="scale(0.015625)"/>
       <path id="DejaVuSans-6e" d="M 3513 2113 
L 3513 0 
L 2938 0 
L 2938 2094 
Q 2938 2591 2744 2837 
Q 2550 3084 2163 3084 
Q 1697 3084 1428 2787 
Q 1159 2491 1159 1978 
L 1159 0 
L 581 0 
L 581 3500 
L 1159 3500 
L 1159 2956 
Q 1366 3272 1645 3428 
Q 1925 3584 2291 3584 
Q 2894 3584 3203 3211 
Q 3513 2838 3513 2113 
z
" transform="scale(0.015625)"/>
       <path id="DejaVuSans-67" d="M 2906 1791 
Q 2906 2416 2648 2759 
Q 2391 3103 1925 3103 
Q 1463 3103 1205 2759 
Q 947 2416 947 1791 
Q 947 1169 1205 825 
Q 1463 481 1925 481 
Q 2391 481 2648 825 
Q 2906 1169 2906 1791 
z
M 3481 434 
Q 3481 -459 3084 -895 
Q 2688 -1331 1869 -1331 
Q 1566 -1331 1297 -1286 
Q 1028 -1241 775 -1147 
L 775 -588 
Q 1028 -725 1275 -790 
Q 1522 -856 1778 -856 
Q 2344 -856 2625 -561 
Q 2906 -266 2906 331 
L 2906 616 
Q 2728 306 2450 153 
Q 2172 0 1784 0 
Q 1141 0 747 490 
Q 353 981 353 1791 
Q 353 2603 747 3093 
Q 1141 3584 1784 3584 
Q 2172 3584 2450 3431 
Q 2728 3278 2906 2969 
L 2906 3500 
L 3481 3500 
L 3481 434 
z
" transform="scale(0.015625)"/>
       <path id="DejaVuSans-20" transform="scale(0.015625)"/>
       <path id="DejaVuSans-53" d="M 3425 4513 
L 3425 3897 
Q 3066 4069 2747 4153 
Q 2428 4238 2131 4238 
Q 1616 4238 1336 4038 
Q 1056 3838 1056 3469 
Q 1056 3159 1242 3001 
Q 1428 2844 1947 2747 
L 2328 2669 
Q 3034 2534 3370 2195 
Q 3706 1856 3706 1288 
Q 3706 609 3251 259 
Q 2797 -91 1919 -91 
Q 1588 -91 1214 -16 
Q 841 59 441 206 
L 441 856 
Q 825 641 1194 531 
Q 1563 422 1919 422 
Q 2459 422 2753 634 
Q 3047 847 3047 1241 
Q 3047 1584 2836 1778 
Q 2625 1972 2144 2069 
L 1759 2144 
Q 1053 2284 737 2584 
Q 422 2884 422 3419 
Q 422 4038 858 4394 
Q 1294 4750 2059 4750 
Q 2388 4750 2728 4690 
Q 3069 4631 3425 4513 
z
" transform="scale(0.015625)"/>
       <path id="DejaVuSans-74" d="M 1172 4494 
L 1172 3500 
L 2356 3500 
L 2356 3053 
L 1172 3053 
L 1172 1153 
Q 1172 725 1289 603 
Q 1406 481 1766 481 
L 2356 481 
L 2356 0 
L 1766 0 
Q 1100 0 847 248 
Q 594 497 594 1153 
L 594 3053 
L 172 3053 
L 172 3500 
L 594 3500 
L 594 4494 
L 1172 4494 
z
" transform="scale(0.015625)"/>
       <path id="DejaVuSans-65" d="M 3597 1894 
L 3597 1613 
L 953 1613 
Q 991 1019 1311 708 
Q 1631 397 2203 397 
Q 2534 397 2845 478 
Q 3156 559 3463 722 
L 3463 178 
Q 3153 47 2828 -22 
Q 2503 -91 2169 -91 
Q 1331 -91 842 396 
Q 353 884 353 1716 
Q 353 2575 817 3079 
Q 1281 3584 2069 3584 
Q 2775 3584 3186 3129 
Q 3597 2675 3597 1894 
z
M 3022 2063 
Q 3016 2534 2758 2815 
Q 2500 3097 2075 3097 
Q 1594 3097 1305 2825 
Q 1016 2553 972 2059 
L 3022 2063 
z
" transform="scale(0.015625)"/>
       <path id="DejaVuSans-70" d="M 1159 525 
L 1159 -1331 
L 581 -1331 
L 581 3500 
L 1159 3500 
L 1159 2969 
Q 1341 3281 1617 3432 
Q 1894 3584 2278 3584 
Q 2916 3584 3314 3078 
Q 3713 2572 3713 1747 
Q 3713 922 3314 415 
Q 2916 -91 2278 -91 
Q 1894 -91 1617 61 
Q 1341 213 1159 525 
z
M 3116 1747 
Q 3116 2381 2855 2742 
Q 2594 3103 2138 3103 
Q 1681 3103 1420 2742 
Q 1159 2381 1159 1747 
Q 1159 1113 1420 752 
Q 1681 391 2138 391 
Q 2594 391 2855 752 
Q 3116 1113 3116 1747 
z
" transform="scale(0.015625)"/>
       <path id="DejaVuSans-73" d="M 2834 3397 
L 2834 2853 
Q 2591 2978 2328 3040 
Q 2066 3103 1784 3103 
Q 1356 3103 1142 2972 
Q 928 2841 928 2578 
Q 928 2378 1081 2264 
Q 1234 2150 1697 2047 
L 1894 2003 
Q 2506 1872 2764 1633 
Q 3022 1394 3022 966 
Q 3022 478 2636 193 
Q 2250 -91 1575 -91 
Q 1294 -91 989 -36 
Q 684 19 347 128 
L 347 722 
Q 666 556 975 473 
Q 1284 391 1588 391 
Q 1994 391 2212 530 
Q 2431 669 2431 922 
Q 2431 1156 2273 1281 
Q 2116 1406 1581 1522 
L 1381 1569 
Q 847 1681 609 1914 
Q 372 2147 372 2553 
Q 372 3047 722 3315 
Q 1072 3584 1716 3584 
Q 2034 3584 2315 3537 
Q 2597 3491 2834 3397 
z
" transform="scale(0.015625)"/>
      </defs>
      <use xlink:href="#DejaVuSans-54"/>
      <use xlink:href="#DejaVuSans-72" x="46.333984"/>
      <use xlink:href="#DejaVuSans-61" x="87.447266"/>
      <use xlink:href="#DejaVuSans-69" x="148.726562"/>
      <use xlink:href="#DejaVuSans-6e" x="176.509766"/>
      <use xlink:href="#DejaVuSans-69" x="239.888672"/>
      <use xlink:href="#DejaVuSans-6e" x="267.671875"/>
      <use xlink:href="#DejaVuSans-67" x="331.050781"/>
      <use xlink:href="#DejaVuSans-20" x="394.527344"/>
      <use xlink:href="#DejaVuSans-53" x="426.314453"/>
      <use xlink:href="#DejaVuSans-74" x="489.791016"/>
      <use xlink:href="#DejaVuSans-65" x="529"/>
      <use xlink:href="#DejaVuSans-70" x="590.523438"/>
      <use xlink:href="#DejaVuSans-73" x="654"/>
     </g>
    </g>
   </g>
   <g id="matplotlib.axis_2">
    <g id="ytick_1">
     <g id="line2d_13">
      <path d="M 45 311.897561 
L 324 311.897561 
" clip-path="url(#pb1793dd5b4)" style="fill: none; stroke: #b0b0b0; stroke-width: 0.8; stroke-linecap: square"/>
     </g>
     <g id="line2d_14">
      <defs>
       <path id="m403f1d6476" d="M 0 0 
L -3.5 0 
" style="stroke: #000000; stroke-width: 0.8"/>
      </defs>
      <g>
       <use xlink:href="#m403f1d6476" x="45" y="311.897561" style="stroke: #000000; stroke-width: 0.8"/>
      </g>
     </g>
     <g id="text_8">
      <!-- 0 -->
      <g transform="translate(31.6375 315.69678)scale(0.1 -0.1)">
       <use xlink:href="#DejaVuSans-30"/>
      </g>
     </g>
    </g>
    <g id="ytick_2">
     <g id="line2d_15">
      <path d="M 45 260.678049 
L 324 260.678049 
" clip-path="url(#pb1793dd5b4)" style="fill: none; stroke: #b0b0b0; stroke-width: 0.8; stroke-linecap: square"/>
     </g>
     <g id="line2d_16">
      <g>
       <use xlink:href="#m403f1d6476" x="45" y="260.678049" style="stroke: #000000; stroke-width: 0.8"/>
      </g>
     </g>
     <g id="text_9">
      <!-- 100 -->
      <g transform="translate(18.9125 264.477268)scale(0.1 -0.1)">
       <use xlink:href="#DejaVuSans-31"/>
       <use xlink:href="#DejaVuSans-30" x="63.623047"/>
       <use xlink:href="#DejaVuSans-30" x="127.246094"/>
      </g>
     </g>
    </g>
    <g id="ytick_3">
     <g id="line2d_17">
      <path d="M 45 209.458537 
L 324 209.458537 
" clip-path="url(#pb1793dd5b4)" style="fill: none; stroke: #b0b0b0; stroke-width: 0.8; stroke-linecap: square"/>
     </g>
     <g id="line2d_18">
      <g>
       <use xlink:href="#m403f1d6476" x="45" y="209.458537" style="stroke: #000000; stroke-width: 0.8"/>
      </g>
     </g>
     <g id="text_10">
      <!-- 200 -->
      <g transform="translate(18.9125 213.257755)scale(0.1 -0.1)">
       <use xlink:href="#DejaVuSans-32"/>
       <use xlink:href="#DejaVuSans-30" x="63.623047"/>
       <use xlink:href="#DejaVuSans-30" x="127.246094"/>
      </g>
     </g>
    </g>
    <g id="ytick_4">
     <g id="line2d_19">
      <path d="M 45 158.239024 
L 324 158.239024 
" clip-path="url(#pb1793dd5b4)" style="fill: none; stroke: #b0b0b0; stroke-width: 0.8; stroke-linecap: square"/>
     </g>
     <g id="line2d_20">
      <g>
       <use xlink:href="#m403f1d6476" x="45" y="158.239024" style="stroke: #000000; stroke-width: 0.8"/>
      </g>
     </g>
     <g id="text_11">
      <!-- 300 -->
      <g transform="translate(18.9125 162.038243)scale(0.1 -0.1)">
       <use xlink:href="#DejaVuSans-33"/>
       <use xlink:href="#DejaVuSans-30" x="63.623047"/>
       <use xlink:href="#DejaVuSans-30" x="127.246094"/>
      </g>
     </g>
    </g>
    <g id="ytick_5">
     <g id="line2d_21">
      <path d="M 45 107.019512 
L 324 107.019512 
" clip-path="url(#pb1793dd5b4)" style="fill: none; stroke: #b0b0b0; stroke-width: 0.8; stroke-linecap: square"/>
     </g>
     <g id="line2d_22">
      <g>
       <use xlink:href="#m403f1d6476" x="45" y="107.019512" style="stroke: #000000; stroke-width: 0.8"/>
      </g>
     </g>
     <g id="text_12">
      <!-- 400 -->
      <g transform="translate(18.9125 110.818731)scale(0.1 -0.1)">
       <use xlink:href="#DejaVuSans-34"/>
       <use xlink:href="#DejaVuSans-30" x="63.623047"/>
       <use xlink:href="#DejaVuSans-30" x="127.246094"/>
      </g>
     </g>
    </g>
    <g id="ytick_6">
     <g id="line2d_23">
      <path d="M 45 55.8 
L 324 55.8 
" clip-path="url(#pb1793dd5b4)" style="fill: none; stroke: #b0b0b0; stroke-width: 0.8; stroke-linecap: square"/>
     </g>
     <g id="line2d_24">
      <g>
       <use xlink:href="#m403f1d6476" x="45" y="55.8" style="stroke: #000000; stroke-width: 0.8"/>
      </g>
     </g>
     <g id="text_13">
      <!-- 500 -->
      <g transform="translate(18.9125 59.599219)scale(0.1 -0.1)">
       <use xlink:href="#DejaVuSans-35"/>
       <use xlink:href="#DejaVuSans-30" x="63.623047"/>
       <use xlink:href="#DejaVuSans-30" x="127.246094"/>
      </g>
     </g>
    </g>
    <g id="text_14">
     <!-- Reward -->
     <g transform="translate(12.832812 200.421094)rotate(-90)scale(0.1 -0.1)">
      <defs>
       <path id="DejaVuSans-52" d="M 2841 2188 
Q 3044 2119 3236 1894 
Q 3428 1669 3622 1275 
L 4263 0 
L 3584 0 
L 2988 1197 
Q 2756 1666 2539 1819 
Q 2322 1972 1947 1972 
L 1259 1972 
L 1259 0 
L 628 0 
L 628 4666 
L 2053 4666 
Q 2853 4666 3247 4331 
Q 3641 3997 3641 3322 
Q 3641 2881 3436 2590 
Q 3231 2300 2841 2188 
z
M 1259 4147 
L 1259 2491 
L 2053 2491 
Q 2509 2491 2742 2702 
Q 2975 2913 2975 3322 
Q 2975 3731 2742 3939 
Q 2509 4147 2053 4147 
L 1259 4147 
z
" transform="scale(0.015625)"/>
       <path id="DejaVuSans-77" d="M 269 3500 
L 844 3500 
L 1563 769 
L 2278 3500 
L 2956 3500 
L 3675 769 
L 4391 3500 
L 4966 3500 
L 4050 0 
L 3372 0 
L 2619 2869 
L 1863 0 
L 1184 0 
L 269 3500 
z
" transform="scale(0.015625)"/>
       <path id="DejaVuSans-64" d="M 2906 2969 
L 2906 4863 
L 3481 4863 
L 3481 0 
L 2906 0 
L 2906 525 
Q 2725 213 2448 61 
Q 2172 -91 1784 -91 
Q 1150 -91 751 415 
Q 353 922 353 1747 
Q 353 2572 751 3078 
Q 1150 3584 1784 3584 
Q 2172 3584 2448 3432 
Q 2725 3281 2906 2969 
z
M 947 1747 
Q 947 1113 1208 752 
Q 1469 391 1925 391 
Q 2381 391 2643 752 
Q 2906 1113 2906 1747 
Q 2906 2381 2643 2742 
Q 2381 3103 1925 3103 
Q 1469 3103 1208 2742 
Q 947 2381 947 1747 
z
" transform="scale(0.015625)"/>
      </defs>
      <use xlink:href="#DejaVuSans-52"/>
      <use xlink:href="#DejaVuSans-65" x="64.982422"/>
      <use xlink:href="#DejaVuSans-77" x="126.505859"/>
      <use xlink:href="#DejaVuSans-61" x="208.292969"/>
      <use xlink:href="#DejaVuSans-72" x="269.572266"/>
      <use xlink:href="#DejaVuSans-64" x="308.935547"/>
     </g>
    </g>
   </g>
   <g id="line2d_25">
    <path d="M 57.951174 275.531707 
L 58.001996 306.77561 
L 58.098557 302.165854 
L 58.195118 302.165854 
L 58.306926 300.629268 
L 58.52546 305.75122 
L 58.774487 286.8 
L 59.094664 303.702439 
L 59.358938 298.068293 
L 59.440253 303.702439 
L 59.735019 282.190244 
L 59.836663 301.653659 
L 59.963717 299.092683 
L 60.15684 292.434146 
L 60.365209 303.702439 
L 60.532921 294.995122 
L 60.614236 303.702439 
L 60.944578 292.434146 
L 61.178358 303.190244 
L 61.330824 296.531707 
L 61.793302 265.287805 
L 62.088068 282.190244 
L 62.326931 301.141463 
L 62.474314 297.043902 
L 62.728423 286.287805 
L 62.901217 294.482927 
L 62.957121 306.263415 
L 63.028272 304.726829 
L 63.14008 300.629268 
L 63.216312 304.214634 
L 63.516161 293.458537 
L 63.709284 306.263415 
L 63.77027 305.75122 
L 63.866831 302.165854 
L 63.988804 306.263415 
L 64.100612 300.629268 
L 64.16668 305.239024 
L 64.375049 290.897561 
L 64.583419 290.897561 
L 64.857857 284.239024 
L 64.923925 305.239024 
L 65.117048 292.434146 
L 65.305088 292.946341 
L 65.569362 305.239024 
L 65.79806 288.84878 
L 65.879375 303.702439 
L 66.138566 285.77561 
L 66.301196 304.214634 
L 66.463825 295.507317 
L 66.595962 298.580488 
L 66.799249 291.409756 
L 66.972043 294.482927 
L 67.256646 283.214634 
L 67.439604 293.458537 
L 67.622563 293.458537 
L 67.841096 289.873171 
L 68.01389 305.75122 
L 68.110452 302.165854 
L 68.349314 287.82439 
L 68.511944 295.507317 
L 68.85245 277.580488 
L 68.923601 304.726829 
L 69.187874 297.556098 
L 69.360668 294.482927 
L 69.513134 296.531707 
L 69.599531 303.190244 
L 69.726585 299.092683 
L 70.006105 283.726829 
L 70.173817 294.995122 
L 70.336447 295.507317 
L 70.504159 294.995122 
L 70.595638 302.678049 
L 70.885322 294.995122 
L 70.981884 302.165854 
L 71.398622 287.82439 
L 71.662896 285.263415 
L 71.7188 306.263415 
L 71.83569 300.117073 
L 71.95258 300.117073 
L 72.191442 287.82439 
L 72.374401 293.458537 
L 72.552277 293.970732 
L 72.653921 301.653659 
L 73.075742 294.482927 
L 73.30444 288.84878 
L 73.390837 303.190244 
L 73.589042 291.921951 
L 73.756754 294.995122 
L 74.031192 304.214634 
L 74.320876 282.702439 
L 74.564821 304.726829 
L 74.707122 297.556098 
L 75.240751 258.117073 
L 75.545681 303.190244 
L 75.713393 294.995122 
L 75.779462 305.239024 
L 76.12505 277.068293 
L 76.399488 303.702439 
L 76.546871 297.043902 
L 76.928034 273.482927 
L 77.029678 301.653659 
L 77.177061 297.043902 
L 77.466745 282.702439 
L 77.598882 298.580488 
L 77.761512 295.507317 
L 77.832662 304.726829 
L 77.924142 302.678049 
L 78.081689 296.019512 
L 78.473017 290.385366 
L 78.89992 300.629268 
L 79.072714 294.482927 
L 79.220098 297.043902 
L 79.377645 296.019512 
L 79.565686 302.678049 
L 79.652083 303.190244 
L 79.890945 287.82439 
L 80.145054 286.287805 
L 80.272109 306.77561 
L 80.719341 287.312195 
L 81.034436 280.141463 
L 81.110669 304.214634 
L 81.197066 303.190244 
L 81.359695 295.507317 
L 81.466421 301.141463 
L 81.623969 296.019512 
L 81.715448 302.678049 
L 81.918735 291.409756 
L 82.030543 300.629268 
L 82.152515 299.604878 
L 82.243995 302.678049 
L 82.55909 280.141463 
L 82.79287 302.165854 
L 82.90976 300.117073 
L 82.996157 303.190244 
L 83.260431 285.263415 
L 83.362074 301.653659 
L 83.473882 300.629268 
L 83.651759 303.190244 
L 83.839799 292.946341 
L 84.154894 304.214634 
L 84.363264 290.897561 
L 84.434414 304.726829 
L 84.713934 283.726829 
L 84.968043 286.287805 
L 85.05444 303.190244 
L 85.14592 302.678049 
L 85.267892 299.604878 
L 85.781192 281.165854 
L 86.086123 281.165854 
L 86.162356 304.214634 
L 86.330068 294.995122 
L 86.45204 299.604878 
L 86.670574 289.873171 
L 86.84845 293.970732 
L 86.914518 305.239024 
L 87.188956 284.239024 
L 87.295682 301.141463 
L 87.52438 288.84878 
L 87.773407 286.8 
L 87.915708 297.556098 
L 88.246049 278.604878 
L 88.388351 297.556098 
L 88.850829 265.287805 
L 89.323472 292.434146 
L 89.699553 273.995122 
L 89.877429 293.970732 
L 90.156949 283.726829 
L 90.477127 298.580488 
L 90.675332 291.921951 
L 90.771893 302.165854 
L 91.173385 287.312195 
L 91.391919 289.873171 
L 91.503727 300.629268 
L 91.676521 294.482927 
L 92.16441 262.726829 
L 92.32704 295.507317 
L 92.60656 283.726829 
L 92.759025 296.531707 
L 92.947066 292.946341 
L 93.216422 284.75122 
L 93.389216 294.482927 
L 93.572174 293.458537 
L 93.755133 293.458537 
L 94.730911 247.360976 
L 95.320444 304.214634 
L 95.605046 283.214634 
L 95.94047 278.092683 
L 96.387702 266.82439 
L 96.596071 290.897561 
L 96.880674 300.117073 
L 97.089043 290.897561 
L 97.29233 291.409756 
L 97.434631 297.556098 
L 97.831041 289.873171 
L 97.96826 298.068293 
L 98.491725 259.141463 
L 98.695012 291.409756 
L 99.228641 258.117073 
L 99.421764 304.726829 
L 99.726694 281.165854 
L 99.940146 303.190244 
L 100.224748 283.214634 
L 100.580501 276.043902 
L 100.748213 294.995122 
L 101.078554 278.604878 
L 101.286924 290.897561 
L 101.602019 280.141463 
L 101.749402 297.043902 
L 102.039086 282.702439 
L 102.425332 272.970732 
L 102.58288 296.019512 
L 102.867482 283.214634 
L 103.121591 286.287805 
L 103.243563 299.604878 
L 103.568823 279.117073 
L 103.965233 271.946341 
L 104.077041 300.629268 
L 104.44804 274.507317 
L 104.869861 269.385366 
L 105.098559 288.84878 
L 105.378079 283.726829 
L 105.59153 304.726829 
L 105.70842 300.117073 
L 106.008269 281.678049 
L 106.445337 267.84878 
L 106.623213 293.970732 
L 106.836664 290.385366 
L 107.045034 290.897561 
L 107.192417 297.043902 
L 107.593909 271.434146 
L 107.939497 277.068293 
L 108.280004 277.580488 
L 108.661167 273.482927 
L 109.464152 230.970732 
L 109.906301 267.336585 
L 110.32304 269.897561 
L 110.516163 292.434146 
L 110.683875 294.995122 
L 110.770272 303.190244 
L 111.120942 276.556098 
L 111.344558 289.360976 
L 111.679982 278.092683 
L 111.847694 294.995122 
L 112.045899 291.921951 
L 112.518542 264.263415 
L 113.001349 293.458537 
L 113.245294 287.312195 
L 113.382512 298.068293 
L 113.667114 283.214634 
L 113.961881 282.190244 
L 114.165168 291.409756 
L 114.912249 267.336585 
L 115.45096 287.82439 
L 115.623754 294.482927 
L 115.862616 287.82439 
L 116.050657 292.946341 
L 116.172629 299.604878 
L 116.904463 238.141463 
L 117.148408 287.312195 
L 117.402517 286.287805 
L 117.687119 283.214634 
L 118.078447 272.458537 
L 118.515514 292.946341 
L 118.713719 291.921951 
L 119.29817 252.995122 
L 119.486211 292.946341 
L 119.689498 291.409756 
L 120.024922 278.092683 
L 120.126565 301.653659 
L 120.599208 264.263415 
L 120.822824 289.360976 
L 120.990536 294.995122 
L 121.229398 287.82439 
L 121.331042 301.653659 
L 121.574987 287.312195 
L 121.696959 299.604878 
L 121.824014 299.092683 
L 122.230588 270.921951 
L 122.393218 295.507317 
L 122.576176 293.458537 
L 123.033572 265.8 
L 123.267353 288.336585 
L 123.607859 277.580488 
L 123.765406 296.019512 
L 123.98394 289.873171 
L 124.131323 297.043902 
L 124.421008 282.702439 
L 124.65987 287.82439 
L 124.93939 283.726829 
L 125.29006 276.556098 
L 125.574663 283.214634 
L 125.930415 276.043902 
L 126.230264 281.678049 
L 126.509784 283.726829 
L 127.185714 243.77561 
L 127.36359 293.970732 
L 127.592288 288.84878 
L 128.024273 268.360976 
L 128.217396 292.434146 
L 128.573149 276.043902 
L 128.87808 281.165854 
L 129.198257 279.629268 
L 129.371051 294.482927 
L 129.772543 271.434146 
L 130.189282 269.897561 
L 130.377323 292.946341 
L 131.007513 248.385366 
L 131.566553 255.556098 
L 131.88673 279.629268 
L 132.140839 286.287805 
L 132.293305 296.531707 
L 132.704961 270.409756 
L 133.091207 272.970732 
L 133.340234 286.8 
L 133.594343 286.287805 
L 134.000917 270.921951 
L 134.072068 304.726829 
L 134.468478 271.946341 
L 135.286709 229.434146 
L 135.876242 252.482927 
L 136.191337 280.141463 
L 136.567418 273.995122 
L 137.314499 236.604878 
L 137.57369 285.77561 
L 137.868456 300.629268 
L 138.295359 268.873171 
L 138.656194 275.531707 
L 138.895057 287.82439 
L 139.194905 281.678049 
L 139.418521 289.360976 
L 139.55574 298.068293 
L 139.814931 285.77561 
L 140.033465 289.873171 
L 140.124944 302.678049 
L 141.461558 210.482927 
L 141.553037 302.678049 
L 141.771571 289.873171 
L 142.09683 279.117073 
L 142.417007 279.629268 
L 142.859157 267.336585 
L 143.164088 281.165854 
L 143.336882 294.482927 
L 143.911168 254.019512 
L 144.322825 297.556098 
L 144.805632 263.239024 
L 144.947933 297.556098 
L 145.451069 281.678049 
L 145.659438 290.897561 
L 146.574231 253.507317 
L 146.7826 290.897561 
L 147.041791 285.77561 
L 147.163764 299.604878 
L 147.331476 294.995122 
L 147.722804 272.458537 
L 148.103967 273.482927 
L 148.464802 275.531707 
L 148.978102 260.165854 
L 149.201718 289.360976 
L 149.36943 294.995122 
L 149.694689 279.117073 
L 149.92847 288.336585 
L 150.472263 257.092683 
L 150.711125 287.82439 
L 150.914413 291.409756 
L 151.158357 287.312195 
L 151.570014 270.409756 
L 151.880027 280.653659 
L 152.525464 246.84878 
L 152.82023 282.190244 
L 153.114997 282.190244 
L 153.460585 277.068293 
L 153.780762 279.629268 
L 154.156844 273.995122 
L 154.878513 239.165854 
L 155.747566 276.043902 
L 156.088072 277.580488 
L 156.255784 294.995122 
L 156.448907 292.434146 
L 156.972371 259.141463 
L 157.475507 261.190244 
L 157.851589 273.995122 
L 158.852778 210.995122 
L 159.569365 290.385366 
L 160.219884 246.336585 
L 160.392679 294.482927 
L 160.743349 276.556098 
L 160.916143 294.482927 
L 161.44469 258.629268 
L 162.110455 244.8 
L 162.694906 252.995122 
L 162.847372 296.531707 
L 163.330179 263.239024 
L 163.533466 291.409756 
L 164.417765 257.604878 
L 165.296982 223.287805 
L 165.596831 281.678049 
L 165.886515 282.702439 
L 166.430309 257.092683 
L 166.847047 269.897561 
L 167.294279 266.82439 
L 168.092181 289.360976 
L 168.686797 251.970732 
L 168.83418 297.043902 
L 169.718479 222.77561 
L 169.891273 294.482927 
L 170.450313 255.556098 
L 170.877216 296.531707 
L 171.1669 282.702439 
L 171.293955 299.092683 
L 172.234158 217.141463 
L 172.589911 276.043902 
L 173.291252 241.214634 
L 173.951935 245.312195 
L 174.460153 294.995122 
L 175.054768 251.970732 
L 175.634137 253.507317 
L 176.45745 228.921951 
L 176.818285 275.531707 
L 177.443393 248.897561 
L 177.834721 272.458537 
L 178.261624 268.873171 
L 179.450854 192.043902 
L 179.862511 270.409756 
L 180.30466 267.336585 
L 181.011083 240.702439 
L 181.46848 265.8 
L 182.124081 245.82439 
L 182.652628 258.629268 
L 183.389544 237.629268 
L 183.796118 270.921951 
L 184.278925 263.239024 
L 184.538116 285.77561 
L 185.234375 241.726829 
L 185.325854 302.678049 
L 185.920469 251.970732 
L 186.535413 249.921951 
L 186.916577 273.482927 
L 187.048713 298.580488 
L 187.287576 287.82439 
L 187.922848 247.873171 
L 188.588614 244.8 
L 189.188311 251.458537 
L 189.310283 299.604878 
L 190.16409 225.84878 
L 191.226265 204.84878 
L 191.932688 240.702439 
L 192.359592 268.873171 
L 192.745837 272.970732 
L 193.025357 283.726829 
L 193.518329 262.214634 
L 193.691123 294.482927 
L 194.250163 255.556098 
L 194.433121 293.458537 
L 194.68723 286.287805 
L 195.164955 263.75122 
L 195.474968 280.653659 
L 196.852239 226.873171 
L 197.975401 198.702439 
L 198.564934 252.482927 
L 199.30185 237.629268 
L 199.759246 265.8 
L 201.151763 171.556098 
L 201.766707 249.921951 
L 203.210046 166.434146 
L 203.601374 272.458537 
L 205.415712 129.043902 
L 206.056067 247.360976 
L 206.69134 247.873171 
L 207.189393 261.702439 
L 207.341859 296.531707 
L 207.809419 264.77561 
L 208.653061 226.873171 
L 209.588182 217.653659 
L 209.852456 285.263415 
L 210.457235 250.946341 
L 211.494 207.409756 
L 212.474861 213.043902 
L 213.115215 247.360976 
L 213.35916 287.312195 
L 213.689502 278.604878 
L 214.309528 249.409756 
L 215.834182 158.239024 
L 216.982754 196.141463 
L 217.917875 217.653659 
L 218.7666 226.360976 
L 219.564502 231.482927 
L 219.950747 272.970732 
L 220.687664 237.629268 
L 221.200964 260.165854 
L 221.866729 244.8 
L 222.283468 269.897561 
L 222.618892 278.092683 
L 222.954316 278.092683 
L 223.904684 216.117073 
L 225.170146 184.360976 
L 225.383598 290.385366 
L 226.156089 234.043902 
L 227.096293 217.141463 
L 227.380895 283.214634 
L 228.265194 222.77561 
L 229.825423 154.653659 
L 230.455614 248.385366 
L 231.070558 249.921951 
L 232.061583 212.019512 
L 232.808663 236.604878 
L 233.814935 210.482927 
L 235.029576 189.482927 
L 235.83256 230.970732 
L 236.432258 251.458537 
L 237.23016 231.482927 
L 237.601159 274.507317 
L 238.576938 213.556098 
L 239.710264 197.678049 
L 240.68096 214.068293 
L 242.19545 159.263415 
L 242.363162 294.995122 
L 242.510545 297.043902 
L 243.237297 238.653659 
L 244.421445 192.556098 
L 245.01606 251.970732 
L 246.108729 201.77561 
L 246.810069 241.214634 
L 247.638465 228.409756 
L 248.90901 183.84878 
L 250.255788 176.165854 
L 250.89106 247.873171 
L 251.551744 245.312195 
L 251.983729 268.360976 
L 252.573262 252.482927 
L 253.228863 245.82439 
L 254.357107 257.604878 
L 255.378625 208.946341 
L 256.562773 192.556098 
L 258.04677 162.336585 
L 259.007302 215.092683 
L 259.850944 281.165854 
L 260.30834 265.8 
L 261.756761 165.921951 
L 261.970213 290.385366 
L 263.728647 134.678049 
L 264.419824 242.239024 
L 265.009356 288.84878 
L 265.766601 235.580488 
L 266.777955 209.970732 
L 267.265844 262.726829 
L 269.136087 123.409756 
L 270.462536 178.214634 
L 271.926204 164.385366 
L 272.597051 244.287805 
L 274.08613 161.82439 
L 275.36684 182.82439 
L 276.515412 196.141463 
L 277.938423 168.482927 
L 278.466969 258.629268 
L 279.234379 234.556098 
L 280.113596 223.287805 
L 281.292662 193.068293 
L 281.882195 252.482927 
L 282.700426 229.434146 
L 283.264548 255.043902 
L 284.138682 223.8 
L 284.748544 250.434146 
L 285.5312 233.019512 
L 286.664526 197.678049 
L 288.016386 175.653659 
L 290.023847 109.580488 
L 291.24357 188.970732 
L 293.698263 64.507317 
L 294.694371 211.507317 
L 295.62441 218.165854 
L 296.462969 227.385366 
L 297.733514 183.84878 
L 299.258168 158.239024 
L 300.081482 228.921951 
L 301.443506 174.629268 
L 302.622572 193.068293 
L 303.821966 191.019512 
L 304.152308 278.604878 
L 305.209401 205.360976 
L 306.007304 231.482927 
L 306.332563 279.117073 
L 308.273956 116.239024 
L 309.397118 198.702439 
L 310.54569 196.141463 
L 311.318182 234.043902 
L 311.318182 234.043902 
" clip-path="url(#pb1793dd5b4)" style="fill: none; stroke: #0000ff; stroke-width: 1.5; stroke-linecap: square"/>
   </g>
   <g id="line2d_26">
    <path d="M 57.681818 302.678049 
L 57.839366 296.019512 
L 57.900352 305.75122 
L 58.037571 298.068293 
L 58.113803 304.214634 
L 58.281515 294.995122 
L 58.327255 307.287805 
L 58.540707 300.629268 
L 58.596611 306.263415 
L 59.114993 287.312195 
L 59.277623 303.702439 
L 59.455499 293.970732 
L 59.592718 306.77561 
L 59.658786 305.239024 
L 59.750265 307.287805 
L 60.192415 298.580488 
L 60.304223 300.629268 
L 60.502428 306.263415 
L 60.55325 306.77561 
L 60.609154 306.263415 
L 60.690469 303.702439 
L 60.792112 306.77561 
L 60.909003 300.117073 
L 60.990317 303.702439 
L 61.142783 296.531707 
L 61.22918 303.190244 
L 61.330824 301.653659 
L 61.422303 302.678049 
L 61.595097 307.287805 
L 61.818713 303.190244 
L 61.950849 305.75122 
L 62.082986 298.580488 
L 62.174465 302.678049 
L 62.352342 293.970732 
L 62.586122 302.165854 
L 62.962203 288.84878 
L 63.053683 302.678049 
L 63.480586 268.873171 
L 63.643215 305.75122 
L 63.729613 303.190244 
L 64.258159 258.629268 
L 64.410625 304.214634 
L 64.471611 305.75122 
L 64.542761 304.726829 
L 64.67998 298.068293 
L 64.746049 305.239024 
L 64.934089 292.946341 
L 65.081472 297.043902 
L 65.416896 278.092683 
L 65.645594 288.84878 
L 65.701498 306.263415 
L 65.813306 300.629268 
L 65.904786 302.678049 
L 66.042004 298.068293 
L 66.082662 307.8 
L 66.336771 286.287805 
L 66.75351 269.897561 
L 66.844989 302.678049 
L 67.114344 284.75122 
L 67.205824 302.678049 
L 67.348125 297.556098 
L 67.566659 302.165854 
L 67.637809 304.726829 
L 67.739453 301.653659 
L 67.978315 287.82439 
L 68.217178 287.82439 
L 68.415383 291.921951 
L 68.476369 305.75122 
L 68.908354 280.141463 
L 68.979505 304.726829 
L 69.167545 292.946341 
L 69.228531 305.75122 
L 69.391161 295.507317 
L 69.584284 292.434146 
L 69.975612 272.458537 
L 70.290707 280.141463 
L 70.36694 304.214634 
L 70.504159 298.068293 
L 70.595638 302.678049 
L 71.266486 244.287805 
L 71.434198 294.995122 
L 71.657814 289.360976 
L 71.881429 289.360976 
L 72.201607 279.629268 
L 72.379483 293.970732 
L 72.69966 279.629268 
L 72.86229 295.507317 
L 73.07066 290.897561 
L 73.812658 237.117073 
L 73.975288 295.507317 
L 74.407273 268.360976 
L 74.549574 297.556098 
L 74.824012 284.239024 
L 75.083203 285.77561 
L 75.835366 236.092683 
L 76.455392 249.409756 
L 76.826391 298.068293 
L 77.100828 284.239024 
L 77.426088 279.117073 
L 77.603964 293.970732 
L 77.94447 277.580488 
L 78.218908 299.604878 
L 78.89992 243.263415 
L 79.113372 290.385366 
L 79.636836 259.141463 
L 79.911274 284.239024 
L 80.455067 298.068293 
L 80.836231 273.482927 
L 81.527407 242.239024 
L 81.690037 295.507317 
L 82.177926 262.726829 
L 82.376131 291.921951 
L 83.245184 224.312195 
L 84.576715 177.702439 
L 85.562658 212.531707 
L 86.355478 231.995122 
L 86.945011 252.482927 
L 87.453229 260.678049 
L 88.43409 213.043902 
L 88.764432 278.604878 
L 89.130349 275.019512 
L 90.146785 209.458537 
L 90.400894 286.287805 
L 91.20896 230.458537 
L 91.290275 303.702439 
L 91.681603 272.458537 
L 92.748861 204.336585 
L 93.23675 262.726829 
L 94.212529 213.556098 
L 94.929116 239.678049 
L 95.640622 240.190244 
L 96.458853 229.434146 
L 96.961988 261.190244 
L 97.399056 267.84878 
L 98.349424 216.117073 
L 99.284545 217.653659 
L 99.589476 281.165854 
L 100.4382 226.360976 
L 101.119212 243.263415 
L 102.298278 193.068293 
L 103.44685 196.141463 
L 104.941011 161.312195 
L 106.455501 159.263415 
L 107.639649 192.556098 
L 109.042331 252.482927 
L 110.384026 176.678049 
L 110.988806 250.946341 
L 111.944255 215.604878 
L 113.169061 188.458537 
L 113.789087 249.409756 
L 114.282058 262.214634 
L 115.28833 210.482927 
L 116.055739 234.556098 
L 117.560064 160.287805 
L 118.418953 225.336585 
L 119.435389 209.458537 
L 120.456907 208.946341 
L 120.888892 268.360976 
L 122.057794 194.092683 
L 123.54179 162.336585 
L 124.395597 225.84878 
L 125.127431 238.141463 
L 125.808443 243.263415 
L 126.916358 200.239024 
L 127.841315 218.678049 
L 128.410519 254.531707 
L 128.659546 286.8 
L 129.223668 255.043902 
L 130.102885 223.287805 
L 131.032924 218.165854 
L 132.156086 198.702439 
L 133.614671 164.897561 
L 134.763244 196.141463 
L 136.699555 116.75122 
L 139.240645 55.8 
L 140.765299 158.239024 
L 141.461558 241.726829 
L 143.301307 126.482927 
L 144.160195 225.336585 
L 144.825961 244.8 
L 146.487834 144.409756 
L 149.028924 55.8 
L 151.361644 223.8 
L 152.571203 189.995122 
L 153.475831 220.726829 
L 154.080611 250.946341 
L 154.975075 221.75122 
L 156.143976 194.092683 
L 157.816013 143.385366 
L 158.796874 213.043902 
L 159.233941 267.84878 
L 161.256649 108.043902 
L 163.797739 55.8 
L 165.698475 120.336585 
L 167.528059 127.507317 
L 168.585153 205.360976 
L 170.384245 130.580488 
L 172.102022 138.77561 
L 173.215019 199.726829 
L 174.455071 186.921951 
L 175.288549 227.897561 
L 175.73578 266.82439 
L 178.27687 55.8 
L 179.979401 140.312195 
L 182.520491 55.8 
L 184.817636 80.385366 
L 186.911494 100.873171 
L 188.48697 153.117073 
L 191.02806 55.8 
L 193.56915 55.8 
L 194.900682 177.702439 
L 197.441772 55.8 
L 199.683013 86.019512 
L 201.736214 104.970732 
L 202.91528 193.068293 
L 204.312879 171.043902 
L 205.629164 179.239024 
L 206.610025 213.043902 
L 207.641707 207.921951 
L 208.612404 214.068293 
L 209.633922 208.946341 
L 210.579207 216.629268 
L 211.539739 215.092683 
L 212.774709 187.434146 
L 213.882624 200.239024 
L 214.624623 237.117073 
L 215.656305 207.921951 
L 216.881111 188.458537 
L 217.861971 213.043902 
L 220.408144 173.092683 
L 221.724428 179.239024 
L 223.030549 180.263415 
L 224.753408 138.263415 
L 225.820666 204.336585 
L 228.361756 55.8 
L 229.967725 150.043902 
L 231.19253 188.458537 
L 233.245731 104.970732 
L 234.379057 197.678049 
L 235.227781 226.360976 
L 236.569476 176.678049 
L 238.607431 106.507317 
L 239.628949 208.946341 
L 241.875273 85.507317 
L 244.416363 55.8 
L 246.957453 55.8 
L 248.710805 135.190244 
L 249.879706 194.092683 
L 251.150251 183.84878 
L 253.254274 99.84878 
L 255.795364 55.8 
L 258.336454 55.8 
L 260.166039 127.507317 
L 261.106242 217.141463 
L 262.183664 203.312195 
L 263.12895 216.629268 
L 263.845537 239.678049 
L 264.592618 236.604878 
L 265.299041 240.702439 
L 266.142683 226.873171 
L 266.833859 242.239024 
L 267.647008 229.946341 
L 268.500814 225.84878 
L 269.222484 239.165854 
L 270.086454 224.82439 
L 271.001247 219.702439 
L 272.083751 202.8 
L 273.181502 201.263415 
L 274.69091 159.77561 
L 275.468483 233.531707 
L 276.515412 206.385366 
L 277.521684 210.482927 
L 278.594024 203.82439 
L 279.574885 213.043902 
L 280.667553 201.77561 
L 283.208644 55.8 
L 284.230162 208.946341 
L 285.144954 219.702439 
L 286.461239 179.239024 
L 287.594565 197.678049 
L 288.74822 195.629268 
L 290.084833 177.190244 
L 291.995733 119.312195 
L 292.895279 221.239024 
L 295.436369 55.8 
L 296.498545 204.84878 
L 297.784336 182.312195 
L 299.766386 112.141463 
L 301.509574 136.214634 
L 303.852459 75.77561 
L 305.026443 193.580488 
L 306.942425 118.8 
L 308.665284 138.263415 
L 310.057801 171.556098 
L 310.957347 221.239024 
L 310.957347 221.239024 
" clip-path="url(#pb1793dd5b4)" style="fill: none; stroke: #ff0000; stroke-width: 1.5; stroke-linecap: square"/>
   </g>
   <g id="patch_3">
    <path d="M 45 320.4 
L 45 43.2 
" style="fill: none; stroke: #000000; stroke-width: 0.8; stroke-linejoin: miter; stroke-linecap: square"/>
   </g>
   <g id="patch_4">
    <path d="M 324 320.4 
L 324 43.2 
" style="fill: none; stroke: #000000; stroke-width: 0.8; stroke-linejoin: miter; stroke-linecap: square"/>
   </g>
   <g id="patch_5">
    <path d="M 45 320.4 
L 324 320.4 
" style="fill: none; stroke: #000000; stroke-width: 0.8; stroke-linejoin: miter; stroke-linecap: square"/>
   </g>
   <g id="patch_6">
    <path d="M 45 43.2 
L 324 43.2 
" style="fill: none; stroke: #000000; stroke-width: 0.8; stroke-linejoin: miter; stroke-linecap: square"/>
   </g>
   <g id="legend_1">
    <g id="patch_7">
     <path d="M 52 80.55625 
L 104.185937 80.55625 
Q 106.185937 80.55625 106.185937 78.55625 
L 106.185937 50.2 
Q 106.185937 48.2 104.185937 48.2 
L 52 48.2 
Q 50 48.2 50 50.2 
L 50 78.55625 
Q 50 80.55625 52 80.55625 
z
" style="fill: #ffffff; opacity: 0.8; stroke: #cccccc; stroke-linejoin: miter"/>
    </g>
    <g id="line2d_27">
     <path d="M 54 56.298437 
L 64 56.298437 
L 74 56.298437 
" style="fill: none; stroke: #0000ff; stroke-width: 1.5; stroke-linecap: square"/>
    </g>
    <g id="text_15">
     <!-- A2C -->
     <g transform="translate(82 59.798437)scale(0.1 -0.1)">
      <defs>
       <path id="DejaVuSans-41" d="M 2188 4044 
L 1331 1722 
L 3047 1722 
L 2188 4044 
z
M 1831 4666 
L 2547 4666 
L 4325 0 
L 3669 0 
L 3244 1197 
L 1141 1197 
L 716 0 
L 50 0 
L 1831 4666 
z
" transform="scale(0.015625)"/>
       <path id="DejaVuSans-43" d="M 4122 4306 
L 4122 3641 
Q 3803 3938 3442 4084 
Q 3081 4231 2675 4231 
Q 1875 4231 1450 3742 
Q 1025 3253 1025 2328 
Q 1025 1406 1450 917 
Q 1875 428 2675 428 
Q 3081 428 3442 575 
Q 3803 722 4122 1019 
L 4122 359 
Q 3791 134 3420 21 
Q 3050 -91 2638 -91 
Q 1578 -91 968 557 
Q 359 1206 359 2328 
Q 359 3453 968 4101 
Q 1578 4750 2638 4750 
Q 3056 4750 3426 4639 
Q 3797 4528 4122 4306 
z
" transform="scale(0.015625)"/>
      </defs>
      <use xlink:href="#DejaVuSans-41"/>
      <use xlink:href="#DejaVuSans-32" x="68.408203"/>
      <use xlink:href="#DejaVuSans-43" x="132.03125"/>
     </g>
    </g>
    <g id="line2d_28">
     <path d="M 54 70.976562 
L 64 70.976562 
L 74 70.976562 
" style="fill: none; stroke: #ff0000; stroke-width: 1.5; stroke-linecap: square"/>
    </g>
    <g id="text_16">
     <!-- PPO -->
     <g transform="translate(82 74.476562)scale(0.1 -0.1)">
      <defs>
       <path id="DejaVuSans-50" d="M 1259 4147 
L 1259 2394 
L 2053 2394 
Q 2494 2394 2734 2622 
Q 2975 2850 2975 3272 
Q 2975 3691 2734 3919 
Q 2494 4147 2053 4147 
L 1259 4147 
z
M 628 4666 
L 2053 4666 
Q 2838 4666 3239 4311 
Q 3641 3956 3641 3272 
Q 3641 2581 3239 2228 
Q 2838 1875 2053 1875 
L 1259 1875 
L 1259 0 
L 628 0 
L 628 4666 
z
" transform="scale(0.015625)"/>
       <path id="DejaVuSans-4f" d="M 2522 4238 
Q 1834 4238 1429 3725 
Q 1025 3213 1025 2328 
Q 1025 1447 1429 934 
Q 1834 422 2522 422 
Q 3209 422 3611 934 
Q 4013 1447 4013 2328 
Q 4013 3213 3611 3725 
Q 3209 4238 2522 4238 
z
M 2522 4750 
Q 3503 4750 4090 4092 
Q 4678 3434 4678 2328 
Q 4678 1225 4090 567 
Q 3503 -91 2522 -91 
Q 1538 -91 948 565 
Q 359 1222 359 2328 
Q 359 3434 948 4092 
Q 1538 4750 2522 4750 
z
" transform="scale(0.015625)"/>
      </defs>
      <use xlink:href="#DejaVuSans-50"/>
      <use xlink:href="#DejaVuSans-50" x="60.302734"/>
      <use xlink:href="#DejaVuSans-4f" x="120.605469"/>
     </g>
    </g>
   </g>
  </g>
 </g>
 <defs>
  <clipPath id="pb1793dd5b4">
   <rect x="45" y="43.2" width="279" height="277.2"/>
  </clipPath>
 </defs>
</svg>
