<?xml version="1.0" encoding="utf-8" standalone="no"?>
<!DOCTYPE svg PUBLIC "-//W3C//DTD SVG 1.1//EN"
  "http://www.w3.org/Graphics/SVG/1.1/DTD/svg11.dtd">
<svg xmlns:xlink="http://www.w3.org/1999/xlink" width="360pt" height="360pt" viewBox="0 0 360 360" xmlns="http://www.w3.org/2000/svg" version="1.1">
 <metadata>
  <rdf:RDF xmlns:dc="http://purl.org/dc/elements/1.1/" xmlns:cc="http://creativecommons.org/ns#" xmlns:rdf="http://www.w3.org/1999/02/22-rdf-syntax-ns#">
   <cc:Work>
    <dc:type rdf:resource="http://purl.org/dc/dcmitype/StillImage"/>
    <dc:date>2023-02-16T09:31:22.331216</dc:date>
    <dc:format>image/svg+xml</dc:format>
    <dc:creator>
     <cc:Agent>
      <dc:title>Matplotlib v3.5.1, https://matplotlib.org/</dc:title>
     </cc:Agent>
    </dc:creator>
   </cc:Work>
  </rdf:RDF>
 </metadata>
 <defs>
  <style type="text/css">*{stroke-linejoin: round; stroke-linecap: butt}</style>
 </defs>
 <g id="figure_1">
  <g id="patch_1">
   <path d="M 0 360 
L 360 360 
L 360 0 
L 0 0 
z
" style="fill: #ffffff"/>
  </g>
  <g id="axes_1">
   <g id="patch_2">
    <path d="M 45 320.4 
L 324 320.4 
L 324 43.2 
L 45 43.2 
z
" style="fill: #ffffff"/>
   </g>
   <g id="matplotlib.axis_1">
    <g id="xtick_1">
     <g id="line2d_1">
      <path d="M 57.575709 320.4 
L 57.575709 43.2 
" clip-path="url(#p5147ef9a3c)" style="fill: none; stroke: #b0b0b0; stroke-width: 0.8; stroke-linecap: square"/>
     </g>
     <g id="line2d_2">
      <defs>
       <path id="mb2163eaaad" d="M 0 0 
L 0 3.5 
" style="stroke: #000000; stroke-width: 0.8"/>
      </defs>
      <g>
       <use xlink:href="#mb2163eaaad" x="57.575709" y="320.4" style="stroke: #000000; stroke-width: 0.8"/>
      </g>
     </g>
     <g id="text_1">
      <!-- 0 -->
      <g transform="translate(54.394459 334.998438)scale(0.1 -0.1)">
       <defs>
        <path id="DejaVuSans-30" d="M 2034 4250 
Q 1547 4250 1301 3770 
Q 1056 3291 1056 2328 
Q 1056 1369 1301 889 
Q 1547 409 2034 409 
Q 2525 409 2770 889 
Q 3016 1369 3016 2328 
Q 3016 3291 2770 3770 
Q 2525 4250 2034 4250 
z
M 2034 4750 
Q 2819 4750 3233 4129 
Q 3647 3509 3647 2328 
Q 3647 1150 3233 529 
Q 2819 -91 2034 -91 
Q 1250 -91 836 529 
Q 422 1150 422 2328 
Q 422 3509 836 4129 
Q 1250 4750 2034 4750 
z
" transform="scale(0.015625)"/>
       </defs>
       <use xlink:href="#DejaVuSans-30"/>
      </g>
     </g>
    </g>
    <g id="xtick_2">
     <g id="line2d_3">
      <path d="M 108.103901 320.4 
L 108.103901 43.2 
" clip-path="url(#p5147ef9a3c)" style="fill: none; stroke: #b0b0b0; stroke-width: 0.8; stroke-linecap: square"/>
     </g>
     <g id="line2d_4">
      <g>
       <use xlink:href="#mb2163eaaad" x="108.103901" y="320.4" style="stroke: #000000; stroke-width: 0.8"/>
      </g>
     </g>
     <g id="text_2">
      <!-- 10000 -->
      <g transform="translate(92.197651 334.998438)scale(0.1 -0.1)">
       <defs>
        <path id="DejaVuSans-31" d="M 794 531 
L 1825 531 
L 1825 4091 
L 703 3866 
L 703 4441 
L 1819 4666 
L 2450 4666 
L 2450 531 
L 3481 531 
L 3481 0 
L 794 0 
L 794 531 
z
" transform="scale(0.015625)"/>
       </defs>
       <use xlink:href="#DejaVuSans-31"/>
       <use xlink:href="#DejaVuSans-30" x="63.623047"/>
       <use xlink:href="#DejaVuSans-30" x="127.246094"/>
       <use xlink:href="#DejaVuSans-30" x="190.869141"/>
       <use xlink:href="#DejaVuSans-30" x="254.492188"/>
      </g>
     </g>
    </g>
    <g id="xtick_3">
     <g id="line2d_5">
      <path d="M 158.632092 320.4 
L 158.632092 43.2 
" clip-path="url(#p5147ef9a3c)" style="fill: none; stroke: #b0b0b0; stroke-width: 0.8; stroke-linecap: square"/>
     </g>
     <g id="line2d_6">
      <g>
       <use xlink:href="#mb2163eaaad" x="158.632092" y="320.4" style="stroke: #000000; stroke-width: 0.8"/>
      </g>
     </g>
     <g id="text_3">
      <!-- 20000 -->
      <g transform="translate(142.725842 334.998438)scale(0.1 -0.1)">
       <defs>
        <path id="DejaVuSans-32" d="M 1228 531 
L 3431 531 
L 3431 0 
L 469 0 
L 469 531 
Q 828 903 1448 1529 
Q 2069 2156 2228 2338 
Q 2531 2678 2651 2914 
Q 2772 3150 2772 3378 
Q 2772 3750 2511 3984 
Q 2250 4219 1831 4219 
Q 1534 4219 1204 4116 
Q 875 4013 500 3803 
L 500 4441 
Q 881 4594 1212 4672 
Q 1544 4750 1819 4750 
Q 2544 4750 2975 4387 
Q 3406 4025 3406 3419 
Q 3406 3131 3298 2873 
Q 3191 2616 2906 2266 
Q 2828 2175 2409 1742 
Q 1991 1309 1228 531 
z
" transform="scale(0.015625)"/>
       </defs>
       <use xlink:href="#DejaVuSans-32"/>
       <use xlink:href="#DejaVuSans-30" x="63.623047"/>
       <use xlink:href="#DejaVuSans-30" x="127.246094"/>
       <use xlink:href="#DejaVuSans-30" x="190.869141"/>
       <use xlink:href="#DejaVuSans-30" x="254.492188"/>
      </g>
     </g>
    </g>
    <g id="xtick_4">
     <g id="line2d_7">
      <path d="M 209.160284 320.4 
L 209.160284 43.2 
" clip-path="url(#p5147ef9a3c)" style="fill: none; stroke: #b0b0b0; stroke-width: 0.8; stroke-linecap: square"/>
     </g>
     <g id="line2d_8">
      <g>
       <use xlink:href="#mb2163eaaad" x="209.160284" y="320.4" style="stroke: #000000; stroke-width: 0.8"/>
      </g>
     </g>
     <g id="text_4">
      <!-- 30000 -->
      <g transform="translate(193.254034 334.998438)scale(0.1 -0.1)">
       <defs>
        <path id="DejaVuSans-33" d="M 2597 2516 
Q 3050 2419 3304 2112 
Q 3559 1806 3559 1356 
Q 3559 666 3084 287 
Q 2609 -91 1734 -91 
Q 1441 -91 1130 -33 
Q 819 25 488 141 
L 488 750 
Q 750 597 1062 519 
Q 1375 441 1716 441 
Q 2309 441 2620 675 
Q 2931 909 2931 1356 
Q 2931 1769 2642 2001 
Q 2353 2234 1838 2234 
L 1294 2234 
L 1294 2753 
L 1863 2753 
Q 2328 2753 2575 2939 
Q 2822 3125 2822 3475 
Q 2822 3834 2567 4026 
Q 2313 4219 1838 4219 
Q 1578 4219 1281 4162 
Q 984 4106 628 3988 
L 628 4550 
Q 988 4650 1302 4700 
Q 1616 4750 1894 4750 
Q 2613 4750 3031 4423 
Q 3450 4097 3450 3541 
Q 3450 3153 3228 2886 
Q 3006 2619 2597 2516 
z
" transform="scale(0.015625)"/>
       </defs>
       <use xlink:href="#DejaVuSans-33"/>
       <use xlink:href="#DejaVuSans-30" x="63.623047"/>
       <use xlink:href="#DejaVuSans-30" x="127.246094"/>
       <use xlink:href="#DejaVuSans-30" x="190.869141"/>
       <use xlink:href="#DejaVuSans-30" x="254.492188"/>
      </g>
     </g>
    </g>
    <g id="xtick_5">
     <g id="line2d_9">
      <path d="M 259.688476 320.4 
L 259.688476 43.2 
" clip-path="url(#p5147ef9a3c)" style="fill: none; stroke: #b0b0b0; stroke-width: 0.8; stroke-linecap: square"/>
     </g>
     <g id="line2d_10">
      <g>
       <use xlink:href="#mb2163eaaad" x="259.688476" y="320.4" style="stroke: #000000; stroke-width: 0.8"/>
      </g>
     </g>
     <g id="text_5">
      <!-- 40000 -->
      <g transform="translate(243.782226 334.998438)scale(0.1 -0.1)">
       <defs>
        <path id="DejaVuSans-34" d="M 2419 4116 
L 825 1625 
L 2419 1625 
L 2419 4116 
z
M 2253 4666 
L 3047 4666 
L 3047 1625 
L 3713 1625 
L 3713 1100 
L 3047 1100 
L 3047 0 
L 2419 0 
L 2419 1100 
L 313 1100 
L 313 1709 
L 2253 4666 
z
" transform="scale(0.015625)"/>
       </defs>
       <use xlink:href="#DejaVuSans-34"/>
       <use xlink:href="#DejaVuSans-30" x="63.623047"/>
       <use xlink:href="#DejaVuSans-30" x="127.246094"/>
       <use xlink:href="#DejaVuSans-30" x="190.869141"/>
       <use xlink:href="#DejaVuSans-30" x="254.492188"/>
      </g>
     </g>
    </g>
    <g id="xtick_6">
     <g id="line2d_11">
      <path d="M 310.216667 320.4 
L 310.216667 43.2 
" clip-path="url(#p5147ef9a3c)" style="fill: none; stroke: #b0b0b0; stroke-width: 0.8; stroke-linecap: square"/>
     </g>
     <g id="line2d_12">
      <g>
       <use xlink:href="#mb2163eaaad" x="310.216667" y="320.4" style="stroke: #000000; stroke-width: 0.8"/>
      </g>
     </g>
     <g id="text_6">
      <!-- 50000 -->
      <g transform="translate(294.310417 334.998438)scale(0.1 -0.1)">
       <defs>
        <path id="DejaVuSans-35" d="M 691 4666 
L 3169 4666 
L 3169 4134 
L 1269 4134 
L 1269 2991 
Q 1406 3038 1543 3061 
Q 1681 3084 1819 3084 
Q 2600 3084 3056 2656 
Q 3513 2228 3513 1497 
Q 3513 744 3044 326 
Q 2575 -91 1722 -91 
Q 1428 -91 1123 -41 
Q 819 9 494 109 
L 494 744 
Q 775 591 1075 516 
Q 1375 441 1709 441 
Q 2250 441 2565 725 
Q 2881 1009 2881 1497 
Q 2881 1984 2565 2268 
Q 2250 2553 1709 2553 
Q 1456 2553 1204 2497 
Q 953 2441 691 2322 
L 691 4666 
z
" transform="scale(0.015625)"/>
       </defs>
       <use xlink:href="#DejaVuSans-35"/>
       <use xlink:href="#DejaVuSans-30" x="63.623047"/>
       <use xlink:href="#DejaVuSans-30" x="127.246094"/>
       <use xlink:href="#DejaVuSans-30" x="190.869141"/>
       <use xlink:href="#DejaVuSans-30" x="254.492188"/>
      </g>
     </g>
    </g>
    <g id="text_7">
     <!-- Training Steps -->
     <g transform="translate(149.195312 348.676562)scale(0.1 -0.1)">
      <defs>
       <path id="DejaVuSans-54" d="M -19 4666 
L 3928 4666 
L 3928 4134 
L 2272 4134 
L 2272 0 
L 1638 0 
L 1638 4134 
L -19 4134 
L -19 4666 
z
" transform="scale(0.015625)"/>
       <path id="DejaVuSans-72" d="M 2631 2963 
Q 2534 3019 2420 3045 
Q 2306 3072 2169 3072 
Q 1681 3072 1420 2755 
Q 1159 2438 1159 1844 
L 1159 0 
L 581 0 
L 581 3500 
L 1159 3500 
L 1159 2956 
Q 1341 3275 1631 3429 
Q 1922 3584 2338 3584 
Q 2397 3584 2469 3576 
Q 2541 3569 2628 3553 
L 2631 2963 
z
" transform="scale(0.015625)"/>
       <path id="DejaVuSans-61" d="M 2194 1759 
Q 1497 1759 1228 1600 
Q 959 1441 959 1056 
Q 959 750 1161 570 
Q 1363 391 1709 391 
Q 2188 391 2477 730 
Q 2766 1069 2766 1631 
L 2766 1759 
L 2194 1759 
z
M 3341 1997 
L 3341 0 
L 2766 0 
L 2766 531 
Q 2569 213 2275 61 
Q 1981 -91 1556 -91 
Q 1019 -91 701 211 
Q 384 513 384 1019 
Q 384 1609 779 1909 
Q 1175 2209 1959 2209 
L 2766 2209 
L 2766 2266 
Q 2766 2663 2505 2880 
Q 2244 3097 1772 3097 
Q 1472 3097 1187 3025 
Q 903 2953 641 2809 
L 641 3341 
Q 956 3463 1253 3523 
Q 1550 3584 1831 3584 
Q 2591 3584 2966 3190 
Q 3341 2797 3341 1997 
z
" transform="scale(0.015625)"/>
       <path id="DejaVuSans-69" d="M 603 3500 
L 1178 3500 
L 1178 0 
L 603 0 
L 603 3500 
z
M 603 4863 
L 1178 4863 
L 1178 4134 
L 603 4134 
L 603 4863 
z
" transform="scale(0.015625)"/>
       <path id="DejaVuSans-6e" d="M 3513 2113 
L 3513 0 
L 2938 0 
L 2938 2094 
Q 2938 2591 2744 2837 
Q 2550 3084 2163 3084 
Q 1697 3084 1428 2787 
Q 1159 2491 1159 1978 
L 1159 0 
L 581 0 
L 581 3500 
L 1159 3500 
L 1159 2956 
Q 1366 3272 1645 3428 
Q 1925 3584 2291 3584 
Q 2894 3584 3203 3211 
Q 3513 2838 3513 2113 
z
" transform="scale(0.015625)"/>
       <path id="DejaVuSans-67" d="M 2906 1791 
Q 2906 2416 2648 2759 
Q 2391 3103 1925 3103 
Q 1463 3103 1205 2759 
Q 947 2416 947 1791 
Q 947 1169 1205 825 
Q 1463 481 1925 481 
Q 2391 481 2648 825 
Q 2906 1169 2906 1791 
z
M 3481 434 
Q 3481 -459 3084 -895 
Q 2688 -1331 1869 -1331 
Q 1566 -1331 1297 -1286 
Q 1028 -1241 775 -1147 
L 775 -588 
Q 1028 -725 1275 -790 
Q 1522 -856 1778 -856 
Q 2344 -856 2625 -561 
Q 2906 -266 2906 331 
L 2906 616 
Q 2728 306 2450 153 
Q 2172 0 1784 0 
Q 1141 0 747 490 
Q 353 981 353 1791 
Q 353 2603 747 3093 
Q 1141 3584 1784 3584 
Q 2172 3584 2450 3431 
Q 2728 3278 2906 2969 
L 2906 3500 
L 3481 3500 
L 3481 434 
z
" transform="scale(0.015625)"/>
       <path id="DejaVuSans-20" transform="scale(0.015625)"/>
       <path id="DejaVuSans-53" d="M 3425 4513 
L 3425 3897 
Q 3066 4069 2747 4153 
Q 2428 4238 2131 4238 
Q 1616 4238 1336 4038 
Q 1056 3838 1056 3469 
Q 1056 3159 1242 3001 
Q 1428 2844 1947 2747 
L 2328 2669 
Q 3034 2534 3370 2195 
Q 3706 1856 3706 1288 
Q 3706 609 3251 259 
Q 2797 -91 1919 -91 
Q 1588 -91 1214 -16 
Q 841 59 441 206 
L 441 856 
Q 825 641 1194 531 
Q 1563 422 1919 422 
Q 2459 422 2753 634 
Q 3047 847 3047 1241 
Q 3047 1584 2836 1778 
Q 2625 1972 2144 2069 
L 1759 2144 
Q 1053 2284 737 2584 
Q 422 2884 422 3419 
Q 422 4038 858 4394 
Q 1294 4750 2059 4750 
Q 2388 4750 2728 4690 
Q 3069 4631 3425 4513 
z
" transform="scale(0.015625)"/>
       <path id="DejaVuSans-74" d="M 1172 4494 
L 1172 3500 
L 2356 3500 
L 2356 3053 
L 1172 3053 
L 1172 1153 
Q 1172 725 1289 603 
Q 1406 481 1766 481 
L 2356 481 
L 2356 0 
L 1766 0 
Q 1100 0 847 248 
Q 594 497 594 1153 
L 594 3053 
L 172 3053 
L 172 3500 
L 594 3500 
L 594 4494 
L 1172 4494 
z
" transform="scale(0.015625)"/>
       <path id="DejaVuSans-65" d="M 3597 1894 
L 3597 1613 
L 953 1613 
Q 991 1019 1311 708 
Q 1631 397 2203 397 
Q 2534 397 2845 478 
Q 3156 559 3463 722 
L 3463 178 
Q 3153 47 2828 -22 
Q 2503 -91 2169 -91 
Q 1331 -91 842 396 
Q 353 884 353 1716 
Q 353 2575 817 3079 
Q 1281 3584 2069 3584 
Q 2775 3584 3186 3129 
Q 3597 2675 3597 1894 
z
M 3022 2063 
Q 3016 2534 2758 2815 
Q 2500 3097 2075 3097 
Q 1594 3097 1305 2825 
Q 1016 2553 972 2059 
L 3022 2063 
z
" transform="scale(0.015625)"/>
       <path id="DejaVuSans-70" d="M 1159 525 
L 1159 -1331 
L 581 -1331 
L 581 3500 
L 1159 3500 
L 1159 2969 
Q 1341 3281 1617 3432 
Q 1894 3584 2278 3584 
Q 2916 3584 3314 3078 
Q 3713 2572 3713 1747 
Q 3713 922 3314 415 
Q 2916 -91 2278 -91 
Q 1894 -91 1617 61 
Q 1341 213 1159 525 
z
M 3116 1747 
Q 3116 2381 2855 2742 
Q 2594 3103 2138 3103 
Q 1681 3103 1420 2742 
Q 1159 2381 1159 1747 
Q 1159 1113 1420 752 
Q 1681 391 2138 391 
Q 2594 391 2855 752 
Q 3116 1113 3116 1747 
z
" transform="scale(0.015625)"/>
       <path id="DejaVuSans-73" d="M 2834 3397 
L 2834 2853 
Q 2591 2978 2328 3040 
Q 2066 3103 1784 3103 
Q 1356 3103 1142 2972 
Q 928 2841 928 2578 
Q 928 2378 1081 2264 
Q 1234 2150 1697 2047 
L 1894 2003 
Q 2506 1872 2764 1633 
Q 3022 1394 3022 966 
Q 3022 478 2636 193 
Q 2250 -91 1575 -91 
Q 1294 -91 989 -36 
Q 684 19 347 128 
L 347 722 
Q 666 556 975 473 
Q 1284 391 1588 391 
Q 1994 391 2212 530 
Q 2431 669 2431 922 
Q 2431 1156 2273 1281 
Q 2116 1406 1581 1522 
L 1381 1569 
Q 847 1681 609 1914 
Q 372 2147 372 2553 
Q 372 3047 722 3315 
Q 1072 3584 1716 3584 
Q 2034 3584 2315 3537 
Q 2597 3491 2834 3397 
z
" transform="scale(0.015625)"/>
      </defs>
      <use xlink:href="#DejaVuSans-54"/>
      <use xlink:href="#DejaVuSans-72" x="46.333984"/>
      <use xlink:href="#DejaVuSans-61" x="87.447266"/>
      <use xlink:href="#DejaVuSans-69" x="148.726562"/>
      <use xlink:href="#DejaVuSans-6e" x="176.509766"/>
      <use xlink:href="#DejaVuSans-69" x="239.888672"/>
      <use xlink:href="#DejaVuSans-6e" x="267.671875"/>
      <use xlink:href="#DejaVuSans-67" x="331.050781"/>
      <use xlink:href="#DejaVuSans-20" x="394.527344"/>
      <use xlink:href="#DejaVuSans-53" x="426.314453"/>
      <use xlink:href="#DejaVuSans-74" x="489.791016"/>
      <use xlink:href="#DejaVuSans-65" x="529"/>
      <use xlink:href="#DejaVuSans-70" x="590.523438"/>
      <use xlink:href="#DejaVuSans-73" x="654"/>
     </g>
    </g>
   </g>
   <g id="matplotlib.axis_2">
    <g id="ytick_1">
     <g id="line2d_13">
      <path d="M 45 312.942857 
L 324 312.942857 
" clip-path="url(#p5147ef9a3c)" style="fill: none; stroke: #b0b0b0; stroke-width: 0.8; stroke-linecap: square"/>
     </g>
     <g id="line2d_14">
      <defs>
       <path id="mc096b5ffa9" d="M 0 0 
L -3.5 0 
" style="stroke: #000000; stroke-width: 0.8"/>
      </defs>
      <g>
       <use xlink:href="#mc096b5ffa9" x="45" y="312.942857" style="stroke: #000000; stroke-width: 0.8"/>
      </g>
     </g>
     <g id="text_8">
      <!-- 0 -->
      <g transform="translate(31.6375 316.742076)scale(0.1 -0.1)">
       <use xlink:href="#DejaVuSans-30"/>
      </g>
     </g>
    </g>
    <g id="ytick_2">
     <g id="line2d_15">
      <path d="M 45 261.514286 
L 324 261.514286 
" clip-path="url(#p5147ef9a3c)" style="fill: none; stroke: #b0b0b0; stroke-width: 0.8; stroke-linecap: square"/>
     </g>
     <g id="line2d_16">
      <g>
       <use xlink:href="#mc096b5ffa9" x="45" y="261.514286" style="stroke: #000000; stroke-width: 0.8"/>
      </g>
     </g>
     <g id="text_9">
      <!-- 100 -->
      <g transform="translate(18.9125 265.313504)scale(0.1 -0.1)">
       <use xlink:href="#DejaVuSans-31"/>
       <use xlink:href="#DejaVuSans-30" x="63.623047"/>
       <use xlink:href="#DejaVuSans-30" x="127.246094"/>
      </g>
     </g>
    </g>
    <g id="ytick_3">
     <g id="line2d_17">
      <path d="M 45 210.085714 
L 324 210.085714 
" clip-path="url(#p5147ef9a3c)" style="fill: none; stroke: #b0b0b0; stroke-width: 0.8; stroke-linecap: square"/>
     </g>
     <g id="line2d_18">
      <g>
       <use xlink:href="#mc096b5ffa9" x="45" y="210.085714" style="stroke: #000000; stroke-width: 0.8"/>
      </g>
     </g>
     <g id="text_10">
      <!-- 200 -->
      <g transform="translate(18.9125 213.884933)scale(0.1 -0.1)">
       <use xlink:href="#DejaVuSans-32"/>
       <use xlink:href="#DejaVuSans-30" x="63.623047"/>
       <use xlink:href="#DejaVuSans-30" x="127.246094"/>
      </g>
     </g>
    </g>
    <g id="ytick_4">
     <g id="line2d_19">
      <path d="M 45 158.657143 
L 324 158.657143 
" clip-path="url(#p5147ef9a3c)" style="fill: none; stroke: #b0b0b0; stroke-width: 0.8; stroke-linecap: square"/>
     </g>
     <g id="line2d_20">
      <g>
       <use xlink:href="#mc096b5ffa9" x="45" y="158.657143" style="stroke: #000000; stroke-width: 0.8"/>
      </g>
     </g>
     <g id="text_11">
      <!-- 300 -->
      <g transform="translate(18.9125 162.456362)scale(0.1 -0.1)">
       <use xlink:href="#DejaVuSans-33"/>
       <use xlink:href="#DejaVuSans-30" x="63.623047"/>
       <use xlink:href="#DejaVuSans-30" x="127.246094"/>
      </g>
     </g>
    </g>
    <g id="ytick_5">
     <g id="line2d_21">
      <path d="M 45 107.228571 
L 324 107.228571 
" clip-path="url(#p5147ef9a3c)" style="fill: none; stroke: #b0b0b0; stroke-width: 0.8; stroke-linecap: square"/>
     </g>
     <g id="line2d_22">
      <g>
       <use xlink:href="#mc096b5ffa9" x="45" y="107.228571" style="stroke: #000000; stroke-width: 0.8"/>
      </g>
     </g>
     <g id="text_12">
      <!-- 400 -->
      <g transform="translate(18.9125 111.02779)scale(0.1 -0.1)">
       <use xlink:href="#DejaVuSans-34"/>
       <use xlink:href="#DejaVuSans-30" x="63.623047"/>
       <use xlink:href="#DejaVuSans-30" x="127.246094"/>
      </g>
     </g>
    </g>
    <g id="ytick_6">
     <g id="line2d_23">
      <path d="M 45 55.8 
L 324 55.8 
" clip-path="url(#p5147ef9a3c)" style="fill: none; stroke: #b0b0b0; stroke-width: 0.8; stroke-linecap: square"/>
     </g>
     <g id="line2d_24">
      <g>
       <use xlink:href="#mc096b5ffa9" x="45" y="55.8" style="stroke: #000000; stroke-width: 0.8"/>
      </g>
     </g>
     <g id="text_13">
      <!-- 500 -->
      <g transform="translate(18.9125 59.599219)scale(0.1 -0.1)">
       <use xlink:href="#DejaVuSans-35"/>
       <use xlink:href="#DejaVuSans-30" x="63.623047"/>
       <use xlink:href="#DejaVuSans-30" x="127.246094"/>
      </g>
     </g>
    </g>
    <g id="text_14">
     <!-- Reward -->
     <g transform="translate(12.832812 200.421094)rotate(-90)scale(0.1 -0.1)">
      <defs>
       <path id="DejaVuSans-52" d="M 2841 2188 
Q 3044 2119 3236 1894 
Q 3428 1669 3622 1275 
L 4263 0 
L 3584 0 
L 2988 1197 
Q 2756 1666 2539 1819 
Q 2322 1972 1947 1972 
L 1259 1972 
L 1259 0 
L 628 0 
L 628 4666 
L 2053 4666 
Q 2853 4666 3247 4331 
Q 3641 3997 3641 3322 
Q 3641 2881 3436 2590 
Q 3231 2300 2841 2188 
z
M 1259 4147 
L 1259 2491 
L 2053 2491 
Q 2509 2491 2742 2702 
Q 2975 2913 2975 3322 
Q 2975 3731 2742 3939 
Q 2509 4147 2053 4147 
L 1259 4147 
z
" transform="scale(0.015625)"/>
       <path id="DejaVuSans-77" d="M 269 3500 
L 844 3500 
L 1563 769 
L 2278 3500 
L 2956 3500 
L 3675 769 
L 4391 3500 
L 4966 3500 
L 4050 0 
L 3372 0 
L 2619 2869 
L 1863 0 
L 1184 0 
L 269 3500 
z
" transform="scale(0.015625)"/>
       <path id="DejaVuSans-64" d="M 2906 2969 
L 2906 4863 
L 3481 4863 
L 3481 0 
L 2906 0 
L 2906 525 
Q 2725 213 2448 61 
Q 2172 -91 1784 -91 
Q 1150 -91 751 415 
Q 353 922 353 1747 
Q 353 2572 751 3078 
Q 1150 3584 1784 3584 
Q 2172 3584 2448 3432 
Q 2725 3281 2906 2969 
z
M 947 1747 
Q 947 1113 1208 752 
Q 1469 391 1925 391 
Q 2381 391 2643 752 
Q 2906 1113 2906 1747 
Q 2906 2381 2643 2742 
Q 2381 3103 1925 3103 
Q 1469 3103 1208 2742 
Q 947 2381 947 1747 
z
" transform="scale(0.015625)"/>
      </defs>
      <use xlink:href="#DejaVuSans-52"/>
      <use xlink:href="#DejaVuSans-65" x="64.982422"/>
      <use xlink:href="#DejaVuSans-77" x="126.505859"/>
      <use xlink:href="#DejaVuSans-61" x="208.292969"/>
      <use xlink:href="#DejaVuSans-72" x="269.572266"/>
      <use xlink:href="#DejaVuSans-64" x="308.935547"/>
     </g>
    </g>
   </g>
   <g id="line2d_25">
    <path d="M 57.681818 302.142857 
L 57.767716 304.2 
L 57.894037 300.085714 
L 57.949618 307.285714 
L 58.010251 306.771429 
L 58.111308 302.657143 
L 58.176994 306.257143 
L 58.303315 300.085714 
L 58.374054 305.742857 
L 58.783333 295.457143 
L 58.854072 305.742857 
L 59.000604 298.028571 
L 59.162294 296.485714 
L 59.364407 292.371429 
L 59.541256 307.285714 
L 59.65747 301.114286 
L 59.778738 300.6 
L 59.894953 301.114286 
L 60.05159 297 
L 60.334548 299.057143 
L 60.657929 306.257143 
L 60.950992 293.4 
L 61.102577 297.514286 
L 61.289531 293.914286 
L 61.375429 304.2 
L 61.491644 301.114286 
L 61.749338 286.714286 
L 61.815024 306.257143 
L 62.032295 290.828571 
L 62.214197 294.428571 
L 62.335465 300.6 
L 62.578 288.257143 
L 62.679056 302.657143 
L 62.921592 299.571429 
L 63.073176 297.514286 
L 63.229814 297 
L 63.376345 298.028571 
L 63.5633 304.714286 
L 63.952367 287.742857 
L 64.043318 303.685714 
L 64.366698 293.914286 
L 64.902297 258.428571 
L 65.058934 297 
L 65.291364 289.285714 
L 65.387367 303.171429 
L 65.518741 299.571429 
L 65.811804 283.114286 
L 66.109921 282.6 
L 66.498988 294.942857 
L 66.862791 275.914286 
L 66.953741 303.685714 
L 67.45397 289.8 
L 67.741981 300.085714 
L 67.928935 293.914286 
L 68.065362 299.057143 
L 68.206841 298.542857 
L 68.464534 286.714286 
L 68.787915 280.028571 
L 68.888971 302.657143 
L 69.156771 285.685714 
L 69.374042 303.171429 
L 69.485204 301.628571 
L 69.798479 295.971429 
L 70.086489 283.628571 
L 70.222915 299.057143 
L 70.713039 263.057143 
L 71.011155 282.6 
L 71.374958 275.914286 
L 71.64781 285.171429 
L 71.854976 303.685714 
L 72.062142 291.857143 
L 72.188462 300.085714 
L 72.607846 287.228571 
L 72.789747 294.428571 
L 73.360716 279.514286 
L 73.74473 273.857143 
L 73.886209 298.542857 
L 75.007935 255.342857 
L 75.093833 304.2 
L 75.270682 294.942857 
L 75.412161 298.542857 
L 75.578904 295.971429 
L 75.821439 301.628571 
L 75.957865 299.057143 
L 76.159978 292.371429 
L 76.220612 306.771429 
L 76.639996 270.257143 
L 76.766316 300.085714 
L 76.887584 300.6 
L 77.094749 291.857143 
L 77.175595 304.714286 
L 77.286757 301.628571 
L 77.600031 281.057143 
L 77.751616 297.514286 
L 78.074996 280.028571 
L 78.373113 282.6 
L 78.868289 262.542857 
L 79.029979 296.485714 
L 79.186617 297 
L 79.494839 281.571429 
L 79.848536 297.514286 
L 80.242656 272.828571 
L 80.39424 297.514286 
L 80.672145 284.657143 
L 80.813624 298.542857 
L 80.995526 294.428571 
L 81.430068 268.714286 
L 81.485649 307.285714 
L 81.677656 293.4 
L 81.798924 300.6 
L 82.00609 291.857143 
L 82.162727 297 
L 82.379998 290.828571 
L 82.49116 301.628571 
L 82.68822 292.885714 
L 83.193502 261.514286 
L 83.375404 294.428571 
L 83.900897 283.114286 
L 84.19396 283.114286 
L 84.466813 300.085714 
L 84.618397 297.514286 
L 84.992306 274.885714 
L 85.522852 300.6 
L 86.36162 227.571429 
L 86.75574 272.828571 
L 86.826479 305.742857 
L 87.351972 273.857143 
L 87.43787 304.2 
L 87.63493 292.885714 
L 87.806726 295.457143 
L 88.640441 259.457143 
L 88.877924 288.771429 
L 89.236674 276.428571 
L 89.736903 291.342857 
L 90.055231 280.542857 
L 90.393769 278.485714 
L 90.666622 285.171429 
L 90.929368 286.2 
L 91.500337 254.828571 
L 91.813612 281.057143 
L 92.111728 282.6 
L 92.414897 282.085714 
L 92.531112 301.114286 
L 93.081869 256.885714 
L 93.344616 286.2 
L 93.673049 279.514286 
L 93.976218 282.085714 
L 94.117697 298.542857 
L 94.436025 280.542857 
L 94.809933 274.885714 
L 95.219212 271.285714 
L 95.638596 270.257143 
L 96.052927 298.542857 
L 96.300515 287.742857 
L 96.563262 286.2 
L 97.033174 265.114286 
L 97.250445 290.828571 
L 97.513192 286.2 
L 97.871942 276.428571 
L 98.276167 271.8 
L 98.756185 292.885714 
L 99.407999 246.6 
L 99.690957 284.142857 
L 99.999179 281.571429 
L 100.287189 283.628571 
L 100.458985 295.457143 
L 100.858158 272.314286 
L 101.237119 274.371429 
L 101.348281 301.628571 
L 101.873775 259.457143 
L 101.979884 302.142857 
L 102.470007 263.057143 
L 102.783282 281.057143 
L 103.515941 238.371429 
L 103.814057 282.6 
L 104.097015 284.142857 
L 104.223336 300.085714 
L 104.950941 238.885714 
L 105.441065 263.057143 
L 105.996875 256.371429 
L 106.714375 239.914286 
L 107.532932 229.628571 
L 108.119059 253.285714 
L 108.684975 255.342857 
L 109.730908 206.485714 
L 110.089659 276.428571 
L 110.3423 287.228571 
L 111.18612 227.057143 
L 111.337705 297.514286 
L 111.494342 297 
L 112.070364 254.314286 
L 112.671649 251.742857 
L 113.540734 224.485714 
L 114.526034 212.657143 
L 114.975735 267.171429 
L 115.319326 277.971429 
L 115.637654 280.542857 
L 116.390524 236.314286 
L 116.971598 253.8 
L 117.254556 284.142857 
L 117.557725 282.085714 
L 117.724468 295.971429 
L 117.951845 289.8 
L 118.69461 237.342857 
L 118.967462 285.171429 
L 119.285789 280.542857 
L 119.487902 292.371429 
L 120.119505 248.657143 
L 121.625245 159.685714 
L 121.908203 284.142857 
L 123.348256 218.314286 
L 123.621108 285.171429 
L 124.217341 252.257143 
L 124.434612 290.828571 
L 125.066215 248.657143 
L 126.208152 196.714286 
L 127.223768 209.571429 
L 127.582519 276.428571 
L 128.350547 234.771429 
L 128.633505 284.142857 
L 129.27016 248.142857 
L 129.69965 269.228571 
L 130.0584 276.428571 
L 130.503048 267.685714 
L 130.715266 291.342857 
L 131.185179 265.114286 
L 131.751094 255.342857 
L 131.88752 299.057143 
L 133.019352 197.742857 
L 134.221923 190.542857 
L 135.879248 144.257143 
L 136.829178 216.257143 
L 137.556784 238.885714 
L 138.21365 246.085714 
L 138.542083 279.514286 
L 139.456644 219.857143 
L 141.058387 149.914286 
L 141.604092 257.4 
L 143.039092 166.885714 
L 143.98397 216.771429 
L 144.928847 216.771429 
L 145.363389 268.714286 
L 146.025308 245.571429 
L 146.848918 229.114286 
L 147.536101 243 
L 148.218232 243.514286 
L 148.789201 254.828571 
L 149.213637 269.742857 
L 149.996824 233.228571 
L 150.764853 234.771429 
L 151.947213 192.6 
L 152.083639 299.057143 
L 152.311016 289.8 
L 152.841562 258.942857 
L 153.498428 246.085714 
L 153.852125 276.942857 
L 154.508992 246.085714 
L 155.196175 243 
L 155.777249 253.8 
L 156.22695 267.171429 
L 156.873711 247.114286 
L 158.374399 160.2 
L 159.243483 224.485714 
L 159.804346 255.857143 
L 160.875544 203.914286 
L 161.416196 257.914286 
L 162.174119 235.8 
L 162.820879 247.114286 
L 163.472693 246.6 
L 163.750598 284.657143 
L 164.271038 259.971429 
L 164.781373 261 
L 165.554455 234.257143 
L 166.211321 246.085714 
L 167.080406 224.485714 
L 167.444209 275.914286 
L 167.944438 262.028571 
L 168.197079 287.228571 
L 169.43502 186.942857 
L 170.374844 217.285714 
L 171.774475 170.485714 
L 172.254493 264.085714 
L 173.381271 198.257143 
L 173.477275 303.171429 
L 174.351413 223.971429 
L 174.785955 268.714286 
L 175.392293 251.228571 
L 175.609565 290.828571 
L 176.872769 184.371429 
L 177.504372 248.657143 
L 178.530094 264.6 
L 179.65182 198.771429 
L 180.44006 232.714286 
L 181.253564 230.142857 
L 182.011487 235.8 
L 182.754251 237.342857 
L 183.264586 295.971429 
L 183.875977 250.714286 
L 185.083601 190.028571 
L 186.063848 213.171429 
L 186.483232 270.257143 
L 187.377581 221.914286 
L 187.96876 252.771429 
L 189.0248 205.457143 
L 189.31281 283.628571 
L 189.600821 283.628571 
L 190.570962 214.2 
L 191.232882 245.571429 
L 191.83922 251.228571 
L 192.485981 247.114286 
L 194.047302 154.028571 
L 195.482302 166.885714 
L 197.442796 225.514286 
L 198.736318 181.285714 
L 199.352762 292.885714 
L 201.237463 121.114286 
L 201.843802 251.228571 
L 202.586566 237.342857 
L 203.031214 267.685714 
L 204.400528 173.571429 
L 205.552571 195.685714 
L 205.946691 272.828571 
L 206.67935 238.371429 
L 207.36148 243.514286 
L 208.078981 239.914286 
L 208.7409 245.571429 
L 209.508928 234.771429 
L 210.448753 217.285714 
L 211.711958 184.371429 
L 212.727574 209.571429 
L 214.743649 107.742857 
L 214.930603 293.914286 
L 215.102399 295.457143 
L 216.214019 199.8 
L 217.512594 180.771429 
L 219.109285 150.428571 
L 220.261328 195.685714 
L 221.034409 234.257143 
L 221.772121 237.857143 
L 223.121223 175.628571 
L 224.141893 209.057143 
L 224.404639 286.2 
L 225.187826 233.228571 
L 225.859851 244.542857 
L 225.981119 300.6 
L 227.143267 194.657143 
L 227.90119 235.8 
L 228.315521 270.771429 
L 229.336191 209.057143 
L 230.164853 228.6 
L 231.18047 209.571429 
L 232.287037 200.314286 
L 233.747302 248.142857 
L 235.364204 148.371429 
L 236.010965 247.114286 
L 236.657726 247.114286 
L 237.931036 183.342857 
L 239.72984 129.857143 
L 240.614083 222.942857 
L 241.27095 246.085714 
L 241.912658 247.628571 
L 243.089965 193.114286 
L 244.242007 195.685714 
L 245.78817 155.571429 
L 246.889685 200.828571 
L 248.304474 168.942857 
L 250.714669 196.714286 
L 251.598912 222.942857 
L 252.685268 202.371429 
L 254.549758 123.171429 
L 255.337998 232.714286 
L 256.545622 190.028571 
L 258.071573 157.628571 
L 258.738546 245.057143 
L 259.193299 266.657143 
L 260.683881 161.228571 
L 261.421593 237.857143 
L 263.291136 122.657143 
L 263.761048 265.114286 
L 264.362333 251.742857 
L 265.817545 164.828571 
L 267.394025 152.485714 
L 267.853831 266.142857 
L 268.626913 234.257143 
L 270.16297 156.6 
L 271.072477 220.371429 
L 271.714185 247.628571 
L 273.326035 148.885714 
L 274.179961 226.028571 
L 274.836827 246.085714 
L 278.636547 55.8 
L 279.899752 184.371429 
L 281.511602 148.885714 
L 281.698556 293.914286 
L 282.961761 184.371429 
L 283.901585 217.285714 
L 285.634702 136.542857 
L 286.938329 180.257143 
L 289.363683 66.085714 
L 290.803736 166.371429 
L 291.915356 199.8 
L 292.723807 230.657143 
L 293.870797 196.2 
L 295.128949 184.885714 
L 296.356784 187.971429 
L 297.08439 238.885714 
L 298.064637 213.171429 
L 298.59013 259.457143 
L 299.873546 182.314286 
L 300.818424 216.771429 
L 302.005836 192.085714 
L 303.021453 209.571429 
L 303.920855 221.4 
L 304.112862 293.4 
L 305.643866 157.114286 
L 306.603902 215.228571 
L 308.453233 124.714286 
L 309.676016 188.485714 
L 311.318182 145.8 
L 311.318182 145.8 
" clip-path="url(#p5147ef9a3c)" style="fill: none; stroke: #0000ff; stroke-width: 1.5; stroke-linecap: square"/>
   </g>
   <g id="line2d_26">
    <path d="M 57.681818 302.142857 
L 57.75761 305.228571 
L 57.914248 297 
L 58.055727 298.542857 
L 58.136572 304.714286 
L 58.278051 298.542857 
L 58.58122 304.714286 
L 58.81365 289.285714 
L 58.950076 306.771429 
L 59.066291 301.114286 
L 59.1724 302.142857 
L 59.384618 291.342857 
L 59.677682 307.8 
L 59.990957 281.057143 
L 60.142541 306.257143 
L 60.28402 305.742857 
L 60.622559 290.828571 
L 60.834777 302.142857 
L 60.961098 300.085714 
L 61.031837 305.742857 
L 61.153105 300.6 
L 61.612911 266.142857 
L 61.921133 299.571429 
L 62.108088 293.914286 
L 62.229355 300.6 
L 62.385993 297 
L 62.502208 301.114286 
L 62.684109 294.428571 
L 62.866011 294.428571 
L 62.962014 303.171429 
L 63.159074 292.885714 
L 63.340976 305.742857 
L 63.467296 300.085714 
L 63.573405 302.142857 
L 63.694673 300.6 
L 63.800782 302.142857 
L 63.92205 300.6 
L 64.043318 300.6 
L 64.179744 299.057143 
L 64.260589 304.714286 
L 64.685026 285.685714 
L 64.760818 305.228571 
L 64.846716 304.2 
L 65.008406 296.485714 
L 65.185255 294.942857 
L 65.271153 304.2 
L 65.533899 286.2 
L 65.872438 278.485714 
L 66.170554 282.6 
L 66.473724 301.628571 
L 67.115432 270.257143 
L 67.595449 264.085714 
L 67.736928 298.542857 
L 68.125995 273.342857 
L 68.479693 276.942857 
L 68.853601 298.028571 
L 69.096137 288.257143 
L 69.252774 297 
L 69.651947 272.314286 
L 69.788373 299.057143 
L 70.010697 290.314286 
L 70.647352 248.142857 
L 71.339588 242.485714 
L 71.784236 297 
L 72.072247 283.628571 
L 72.233937 296.485714 
L 72.511842 299.057143 
L 72.7948 284.142857 
L 73.123234 299.571429 
L 73.375875 287.228571 
L 73.638621 302.142857 
L 73.749783 301.628571 
L 74.128745 290.828571 
L 74.310646 294.428571 
L 74.92709 250.2 
L 75.730488 231.171429 
L 76.03871 281.571429 
L 76.473253 268.714286 
L 76.786527 281.057143 
L 77.22107 268.714286 
L 77.473711 287.228571 
L 78.110366 292.885714 
L 78.656071 282.6 
L 78.848078 293.4 
L 79.287673 268.2 
L 79.722215 268.714286 
L 80.182022 266.142857 
L 80.353818 295.457143 
L 80.581195 289.8 
L 80.939945 276.428571 
L 81.617023 244.028571 
L 81.93535 280.542857 
L 82.460843 259.457143 
L 82.738748 284.657143 
L 83.617939 223.457143 
L 84.224277 251.228571 
L 84.759876 258.428571 
L 85.285369 259.457143 
L 85.9675 243.514286 
L 86.578891 250.714286 
L 87.422712 227.057143 
L 87.725881 282.085714 
L 88.3878 245.571429 
L 88.605071 290.828571 
L 88.898135 283.114286 
L 89.701533 231.171429 
L 90.277555 254.314286 
L 90.732308 266.657143 
L 91.247696 260.485714 
L 91.944985 282.085714 
L 92.768594 229.114286 
L 92.950496 294.428571 
L 93.718524 234.771429 
L 94.476447 235.8 
L 94.67856 292.371429 
L 95.047416 275.4 
L 96.310621 184.371429 
L 97.13423 229.114286 
L 97.523297 273.342857 
L 97.993209 265.114286 
L 98.63997 247.114286 
L 99.615164 213.685714 
L 99.978967 275.914286 
L 100.964267 212.657143 
L 101.580711 250.2 
L 102.9955 168.942857 
L 103.920166 218.828571 
L 104.844832 218.828571 
L 104.976206 299.571429 
L 105.986769 210.085714 
L 107.351031 174.085714 
L 107.623883 285.171429 
L 108.902246 182.828571 
L 109.821859 219.342857 
L 110.054289 289.285714 
L 110.776842 239.4 
L 112.262371 161.742857 
L 112.979871 239.914286 
L 113.778217 231.685714 
L 114.758463 213.171429 
L 115.435541 244.028571 
L 116.243992 230.657143 
L 117.006968 235.285714 
L 117.739627 238.371429 
L 118.376282 248.142857 
L 119.225156 226.542857 
L 120.276142 205.971429 
L 120.98859 240.428571 
L 122.706548 138.085714 
L 123.843432 197.228571 
L 124.848943 210.6 
L 125.424965 254.314286 
L 126.829648 169.971429 
L 127.587571 235.8 
L 128.209068 249.685714 
L 129.179209 214.2 
L 131.099281 117.514286 
L 132.296799 191.057143 
L 133.342732 206.485714 
L 133.711588 275.4 
L 135.434599 137.571429 
L 136.571484 197.228571 
L 137.238456 245.057143 
L 138.153016 219.857143 
L 139.244425 201.857143 
L 139.805288 255.857143 
L 140.532894 238.885714 
L 141.644514 199.8 
L 143.099726 164.828571 
L 144.544832 165.857143 
L 145.444234 221.4 
L 146.651858 190.028571 
L 147.485573 228.085714 
L 148.440556 215.742857 
L 149.006472 255.342857 
L 151.032652 106.714286 
L 151.633938 251.742857 
L 152.745558 199.8 
L 153.735911 212.142857 
L 155.984415 84.085714 
L 157.919645 115.971429 
L 159.359698 166.371429 
L 160.723959 174.085714 
L 162.325703 149.914286 
L 163.639436 179.228571 
L 165.579719 115.457143 
L 167.742325 226.028571 
L 168.656886 219.857143 
L 169.531023 223.971429 
L 171.385408 124.2 
L 172.845673 164.314286 
L 174.033085 192.085714 
L 175.488297 164.828571 
L 176.023896 258.428571 
L 177.98439 113.4 
L 180.040887 103.628571 
L 180.965553 218.828571 
L 182.213599 185.914286 
L 184.740009 55.8 
L 185.694992 215.742857 
L 186.771242 203.4 
L 188.211296 166.371429 
L 189.530081 178.714286 
L 190.85392 178.2 
L 192.612301 133.971429 
L 193.284326 244.542857 
L 194.06246 233.742857 
L 196.58887 55.8 
L 197.786388 191.057143 
L 199.585192 129.857143 
L 202.111601 55.8 
L 203.334383 188.485714 
L 205.860793 55.8 
L 207.129051 183.857143 
L 208.164879 207.514286 
L 210.312327 94.371429 
L 212.626518 77.4 
L 214.096888 163.285714 
L 216.284759 90.257143 
L 218.811169 55.8 
L 220.488705 142.2 
L 221.787279 180.771429 
L 224.303583 56.828571 
L 226.132704 126.771429 
L 228.078039 114.942857 
L 228.739958 245.571429 
L 230.558973 127.8 
L 232.307249 135 
L 234.085841 131.914286 
L 235.333887 185.914286 
L 237.04174 139.114286 
L 239.56815 55.8 
L 240.811143 186.428571 
L 241.983397 193.628571 
L 243.327447 176.142857 
L 244.661391 177.171429 
L 246.707783 104.657143 
L 247.536445 228.6 
L 248.961341 167.914286 
L 250.421605 164.314286 
L 252.255779 126.257143 
L 253.45835 190.542857 
L 255.706854 84.085714 
L 257.561239 124.2 
L 260.087648 55.8 
L 262.614058 55.8 
L 264.215802 149.914286 
L 266.247035 106.2 
L 268.62186 71.228571 
L 270.173075 155.057143 
L 271.926404 134.485714 
L 273.679732 134.485714 
L 275.043993 174.085714 
L 277.570403 55.8 
L 280.096812 55.8 
L 282.042148 114.942857 
L 283.921796 121.628571 
L 286.448206 55.8 
L 291.501025 55.8 
L 293.178561 142.2 
L 295.704971 55.8 
L 298.23138 55.8 
L 300.545571 77.4 
L 303.071981 55.8 
L 304.173496 200.828571 
L 305.724711 155.057143 
L 308.251121 55.8 
L 310.77753 55.8 
L 310.77753 55.8 
" clip-path="url(#p5147ef9a3c)" style="fill: none; stroke: #ff0000; stroke-width: 1.5; stroke-linecap: square"/>
   </g>
   <g id="patch_3">
    <path d="M 45 320.4 
L 45 43.2 
" style="fill: none; stroke: #000000; stroke-width: 0.8; stroke-linejoin: miter; stroke-linecap: square"/>
   </g>
   <g id="patch_4">
    <path d="M 324 320.4 
L 324 43.2 
" style="fill: none; stroke: #000000; stroke-width: 0.8; stroke-linejoin: miter; stroke-linecap: square"/>
   </g>
   <g id="patch_5">
    <path d="M 45 320.4 
L 324 320.4 
" style="fill: none; stroke: #000000; stroke-width: 0.8; stroke-linejoin: miter; stroke-linecap: square"/>
   </g>
   <g id="patch_6">
    <path d="M 45 43.2 
L 324 43.2 
" style="fill: none; stroke: #000000; stroke-width: 0.8; stroke-linejoin: miter; stroke-linecap: square"/>
   </g>
   <g id="legend_1">
    <g id="patch_7">
     <path d="M 52 80.55625 
L 104.185937 80.55625 
Q 106.185937 80.55625 106.185937 78.55625 
L 106.185937 50.2 
Q 106.185937 48.2 104.185937 48.2 
L 52 48.2 
Q 50 48.2 50 50.2 
L 50 78.55625 
Q 50 80.55625 52 80.55625 
z
" style="fill: #ffffff; opacity: 0.8; stroke: #cccccc; stroke-linejoin: miter"/>
    </g>
    <g id="line2d_27">
     <path d="M 54 56.298437 
L 64 56.298437 
L 74 56.298437 
" style="fill: none; stroke: #0000ff; stroke-width: 1.5; stroke-linecap: square"/>
    </g>
    <g id="text_15">
     <!-- A2C -->
     <g transform="translate(82 59.798437)scale(0.1 -0.1)">
      <defs>
       <path id="DejaVuSans-41" d="M 2188 4044 
L 1331 1722 
L 3047 1722 
L 2188 4044 
z
M 1831 4666 
L 2547 4666 
L 4325 0 
L 3669 0 
L 3244 1197 
L 1141 1197 
L 716 0 
L 50 0 
L 1831 4666 
z
" transform="scale(0.015625)"/>
       <path id="DejaVuSans-43" d="M 4122 4306 
L 4122 3641 
Q 3803 3938 3442 4084 
Q 3081 4231 2675 4231 
Q 1875 4231 1450 3742 
Q 1025 3253 1025 2328 
Q 1025 1406 1450 917 
Q 1875 428 2675 428 
Q 3081 428 3442 575 
Q 3803 722 4122 1019 
L 4122 359 
Q 3791 134 3420 21 
Q 3050 -91 2638 -91 
Q 1578 -91 968 557 
Q 359 1206 359 2328 
Q 359 3453 968 4101 
Q 1578 4750 2638 4750 
Q 3056 4750 3426 4639 
Q 3797 4528 4122 4306 
z
" transform="scale(0.015625)"/>
      </defs>
      <use xlink:href="#DejaVuSans-41"/>
      <use xlink:href="#DejaVuSans-32" x="68.408203"/>
      <use xlink:href="#DejaVuSans-43" x="132.03125"/>
     </g>
    </g>
    <g id="line2d_28">
     <path d="M 54 70.976562 
L 64 70.976562 
L 74 70.976562 
" style="fill: none; stroke: #ff0000; stroke-width: 1.5; stroke-linecap: square"/>
    </g>
    <g id="text_16">
     <!-- PPO -->
     <g transform="translate(82 74.476562)scale(0.1 -0.1)">
      <defs>
       <path id="DejaVuSans-50" d="M 1259 4147 
L 1259 2394 
L 2053 2394 
Q 2494 2394 2734 2622 
Q 2975 2850 2975 3272 
Q 2975 3691 2734 3919 
Q 2494 4147 2053 4147 
L 1259 4147 
z
M 628 4666 
L 2053 4666 
Q 2838 4666 3239 4311 
Q 3641 3956 3641 3272 
Q 3641 2581 3239 2228 
Q 2838 1875 2053 1875 
L 1259 1875 
L 1259 0 
L 628 0 
L 628 4666 
z
" transform="scale(0.015625)"/>
       <path id="DejaVuSans-4f" d="M 2522 4238 
Q 1834 4238 1429 3725 
Q 1025 3213 1025 2328 
Q 1025 1447 1429 934 
Q 1834 422 2522 422 
Q 3209 422 3611 934 
Q 4013 1447 4013 2328 
Q 4013 3213 3611 3725 
Q 3209 4238 2522 4238 
z
M 2522 4750 
Q 3503 4750 4090 4092 
Q 4678 3434 4678 2328 
Q 4678 1225 4090 567 
Q 3503 -91 2522 -91 
Q 1538 -91 948 565 
Q 359 1222 359 2328 
Q 359 3434 948 4092 
Q 1538 4750 2522 4750 
z
" transform="scale(0.015625)"/>
      </defs>
      <use xlink:href="#DejaVuSans-50"/>
      <use xlink:href="#DejaVuSans-50" x="60.302734"/>
      <use xlink:href="#DejaVuSans-4f" x="120.605469"/>
     </g>
    </g>
   </g>
  </g>
 </g>
 <defs>
  <clipPath id="p5147ef9a3c">
   <rect x="45" y="43.2" width="279" height="277.2"/>
  </clipPath>
 </defs>
</svg>
