<?xml version="1.0" encoding="utf-8" standalone="no"?>
<!DOCTYPE svg PUBLIC "-//W3C//DTD SVG 1.1//EN"
  "http://www.w3.org/Graphics/SVG/1.1/DTD/svg11.dtd">
<svg xmlns:xlink="http://www.w3.org/1999/xlink" width="360pt" height="360pt" viewBox="0 0 360 360" xmlns="http://www.w3.org/2000/svg" version="1.1">
 <metadata>
  <rdf:RDF xmlns:dc="http://purl.org/dc/elements/1.1/" xmlns:cc="http://creativecommons.org/ns#" xmlns:rdf="http://www.w3.org/1999/02/22-rdf-syntax-ns#">
   <cc:Work>
    <dc:type rdf:resource="http://purl.org/dc/dcmitype/StillImage"/>
    <dc:date>2023-02-13T10:46:52.320904</dc:date>
    <dc:format>image/svg+xml</dc:format>
    <dc:creator>
     <cc:Agent>
      <dc:title>Matplotlib v3.5.1, https://matplotlib.org/</dc:title>
     </cc:Agent>
    </dc:creator>
   </cc:Work>
  </rdf:RDF>
 </metadata>
 <defs>
  <style type="text/css">*{stroke-linejoin: round; stroke-linecap: butt}</style>
 </defs>
 <g id="figure_1">
  <g id="patch_1">
   <path d="M 0 360 
L 360 360 
L 360 0 
L 0 0 
z
" style="fill: #ffffff"/>
  </g>
  <g id="axes_1">
   <g id="patch_2">
    <path d="M 45 320.4 
L 324 320.4 
L 324 43.2 
L 45 43.2 
z
" style="fill: #ffffff"/>
   </g>
   <g id="matplotlib.axis_1">
    <g id="xtick_1">
     <g id="line2d_1">
      <path d="M 57.615701 320.4 
L 57.615701 43.2 
" clip-path="url(#p6c4b1ab22b)" style="fill: none; stroke: #b0b0b0; stroke-width: 0.8; stroke-linecap: square"/>
     </g>
     <g id="line2d_2">
      <defs>
       <path id="m0db290418d" d="M 0 0 
L 0 3.5 
" style="stroke: #000000; stroke-width: 0.8"/>
      </defs>
      <g>
       <use xlink:href="#m0db290418d" x="57.615701" y="320.4" style="stroke: #000000; stroke-width: 0.8"/>
      </g>
     </g>
     <g id="text_1">
      <!-- 0 -->
      <g transform="translate(54.434451 334.998438)scale(0.1 -0.1)">
       <defs>
        <path id="DejaVuSans-30" d="M 2034 4250 
Q 1547 4250 1301 3770 
Q 1056 3291 1056 2328 
Q 1056 1369 1301 889 
Q 1547 409 2034 409 
Q 2525 409 2770 889 
Q 3016 1369 3016 2328 
Q 3016 3291 2770 3770 
Q 2525 4250 2034 4250 
z
M 2034 4750 
Q 2819 4750 3233 4129 
Q 3647 3509 3647 2328 
Q 3647 1150 3233 529 
Q 2819 -91 2034 -91 
Q 1250 -91 836 529 
Q 422 1150 422 2328 
Q 422 3509 836 4129 
Q 1250 4750 2034 4750 
z
" transform="scale(0.015625)"/>
       </defs>
       <use xlink:href="#DejaVuSans-30"/>
      </g>
     </g>
    </g>
    <g id="xtick_2">
     <g id="line2d_3">
      <path d="M 108.475208 320.4 
L 108.475208 43.2 
" clip-path="url(#p6c4b1ab22b)" style="fill: none; stroke: #b0b0b0; stroke-width: 0.8; stroke-linecap: square"/>
     </g>
     <g id="line2d_4">
      <g>
       <use xlink:href="#m0db290418d" x="108.475208" y="320.4" style="stroke: #000000; stroke-width: 0.8"/>
      </g>
     </g>
     <g id="text_2">
      <!-- 10000 -->
      <g transform="translate(92.568958 334.998438)scale(0.1 -0.1)">
       <defs>
        <path id="DejaVuSans-31" d="M 794 531 
L 1825 531 
L 1825 4091 
L 703 3866 
L 703 4441 
L 1819 4666 
L 2450 4666 
L 2450 531 
L 3481 531 
L 3481 0 
L 794 0 
L 794 531 
z
" transform="scale(0.015625)"/>
       </defs>
       <use xlink:href="#DejaVuSans-31"/>
       <use xlink:href="#DejaVuSans-30" x="63.623047"/>
       <use xlink:href="#DejaVuSans-30" x="127.246094"/>
       <use xlink:href="#DejaVuSans-30" x="190.869141"/>
       <use xlink:href="#DejaVuSans-30" x="254.492188"/>
      </g>
     </g>
    </g>
    <g id="xtick_3">
     <g id="line2d_5">
      <path d="M 159.334716 320.4 
L 159.334716 43.2 
" clip-path="url(#p6c4b1ab22b)" style="fill: none; stroke: #b0b0b0; stroke-width: 0.8; stroke-linecap: square"/>
     </g>
     <g id="line2d_6">
      <g>
       <use xlink:href="#m0db290418d" x="159.334716" y="320.4" style="stroke: #000000; stroke-width: 0.8"/>
      </g>
     </g>
     <g id="text_3">
      <!-- 20000 -->
      <g transform="translate(143.428466 334.998438)scale(0.1 -0.1)">
       <defs>
        <path id="DejaVuSans-32" d="M 1228 531 
L 3431 531 
L 3431 0 
L 469 0 
L 469 531 
Q 828 903 1448 1529 
Q 2069 2156 2228 2338 
Q 2531 2678 2651 2914 
Q 2772 3150 2772 3378 
Q 2772 3750 2511 3984 
Q 2250 4219 1831 4219 
Q 1534 4219 1204 4116 
Q 875 4013 500 3803 
L 500 4441 
Q 881 4594 1212 4672 
Q 1544 4750 1819 4750 
Q 2544 4750 2975 4387 
Q 3406 4025 3406 3419 
Q 3406 3131 3298 2873 
Q 3191 2616 2906 2266 
Q 2828 2175 2409 1742 
Q 1991 1309 1228 531 
z
" transform="scale(0.015625)"/>
       </defs>
       <use xlink:href="#DejaVuSans-32"/>
       <use xlink:href="#DejaVuSans-30" x="63.623047"/>
       <use xlink:href="#DejaVuSans-30" x="127.246094"/>
       <use xlink:href="#DejaVuSans-30" x="190.869141"/>
       <use xlink:href="#DejaVuSans-30" x="254.492188"/>
      </g>
     </g>
    </g>
    <g id="xtick_4">
     <g id="line2d_7">
      <path d="M 210.194223 320.4 
L 210.194223 43.2 
" clip-path="url(#p6c4b1ab22b)" style="fill: none; stroke: #b0b0b0; stroke-width: 0.8; stroke-linecap: square"/>
     </g>
     <g id="line2d_8">
      <g>
       <use xlink:href="#m0db290418d" x="210.194223" y="320.4" style="stroke: #000000; stroke-width: 0.8"/>
      </g>
     </g>
     <g id="text_4">
      <!-- 30000 -->
      <g transform="translate(194.287973 334.998438)scale(0.1 -0.1)">
       <defs>
        <path id="DejaVuSans-33" d="M 2597 2516 
Q 3050 2419 3304 2112 
Q 3559 1806 3559 1356 
Q 3559 666 3084 287 
Q 2609 -91 1734 -91 
Q 1441 -91 1130 -33 
Q 819 25 488 141 
L 488 750 
Q 750 597 1062 519 
Q 1375 441 1716 441 
Q 2309 441 2620 675 
Q 2931 909 2931 1356 
Q 2931 1769 2642 2001 
Q 2353 2234 1838 2234 
L 1294 2234 
L 1294 2753 
L 1863 2753 
Q 2328 2753 2575 2939 
Q 2822 3125 2822 3475 
Q 2822 3834 2567 4026 
Q 2313 4219 1838 4219 
Q 1578 4219 1281 4162 
Q 984 4106 628 3988 
L 628 4550 
Q 988 4650 1302 4700 
Q 1616 4750 1894 4750 
Q 2613 4750 3031 4423 
Q 3450 4097 3450 3541 
Q 3450 3153 3228 2886 
Q 3006 2619 2597 2516 
z
" transform="scale(0.015625)"/>
       </defs>
       <use xlink:href="#DejaVuSans-33"/>
       <use xlink:href="#DejaVuSans-30" x="63.623047"/>
       <use xlink:href="#DejaVuSans-30" x="127.246094"/>
       <use xlink:href="#DejaVuSans-30" x="190.869141"/>
       <use xlink:href="#DejaVuSans-30" x="254.492188"/>
      </g>
     </g>
    </g>
    <g id="xtick_5">
     <g id="line2d_9">
      <path d="M 261.053731 320.4 
L 261.053731 43.2 
" clip-path="url(#p6c4b1ab22b)" style="fill: none; stroke: #b0b0b0; stroke-width: 0.8; stroke-linecap: square"/>
     </g>
     <g id="line2d_10">
      <g>
       <use xlink:href="#m0db290418d" x="261.053731" y="320.4" style="stroke: #000000; stroke-width: 0.8"/>
      </g>
     </g>
     <g id="text_5">
      <!-- 40000 -->
      <g transform="translate(245.147481 334.998438)scale(0.1 -0.1)">
       <defs>
        <path id="DejaVuSans-34" d="M 2419 4116 
L 825 1625 
L 2419 1625 
L 2419 4116 
z
M 2253 4666 
L 3047 4666 
L 3047 1625 
L 3713 1625 
L 3713 1100 
L 3047 1100 
L 3047 0 
L 2419 0 
L 2419 1100 
L 313 1100 
L 313 1709 
L 2253 4666 
z
" transform="scale(0.015625)"/>
       </defs>
       <use xlink:href="#DejaVuSans-34"/>
       <use xlink:href="#DejaVuSans-30" x="63.623047"/>
       <use xlink:href="#DejaVuSans-30" x="127.246094"/>
       <use xlink:href="#DejaVuSans-30" x="190.869141"/>
       <use xlink:href="#DejaVuSans-30" x="254.492188"/>
      </g>
     </g>
    </g>
    <g id="xtick_6">
     <g id="line2d_11">
      <path d="M 311.913238 320.4 
L 311.913238 43.2 
" clip-path="url(#p6c4b1ab22b)" style="fill: none; stroke: #b0b0b0; stroke-width: 0.8; stroke-linecap: square"/>
     </g>
     <g id="line2d_12">
      <g>
       <use xlink:href="#m0db290418d" x="311.913238" y="320.4" style="stroke: #000000; stroke-width: 0.8"/>
      </g>
     </g>
     <g id="text_6">
      <!-- 50000 -->
      <g transform="translate(296.006988 334.998438)scale(0.1 -0.1)">
       <defs>
        <path id="DejaVuSans-35" d="M 691 4666 
L 3169 4666 
L 3169 4134 
L 1269 4134 
L 1269 2991 
Q 1406 3038 1543 3061 
Q 1681 3084 1819 3084 
Q 2600 3084 3056 2656 
Q 3513 2228 3513 1497 
Q 3513 744 3044 326 
Q 2575 -91 1722 -91 
Q 1428 -91 1123 -41 
Q 819 9 494 109 
L 494 744 
Q 775 591 1075 516 
Q 1375 441 1709 441 
Q 2250 441 2565 725 
Q 2881 1009 2881 1497 
Q 2881 1984 2565 2268 
Q 2250 2553 1709 2553 
Q 1456 2553 1204 2497 
Q 953 2441 691 2322 
L 691 4666 
z
" transform="scale(0.015625)"/>
       </defs>
       <use xlink:href="#DejaVuSans-35"/>
       <use xlink:href="#DejaVuSans-30" x="63.623047"/>
       <use xlink:href="#DejaVuSans-30" x="127.246094"/>
       <use xlink:href="#DejaVuSans-30" x="190.869141"/>
       <use xlink:href="#DejaVuSans-30" x="254.492188"/>
      </g>
     </g>
    </g>
    <g id="text_7">
     <!-- Training Steps -->
     <g transform="translate(149.195312 348.676562)scale(0.1 -0.1)">
      <defs>
       <path id="DejaVuSans-54" d="M -19 4666 
L 3928 4666 
L 3928 4134 
L 2272 4134 
L 2272 0 
L 1638 0 
L 1638 4134 
L -19 4134 
L -19 4666 
z
" transform="scale(0.015625)"/>
       <path id="DejaVuSans-72" d="M 2631 2963 
Q 2534 3019 2420 3045 
Q 2306 3072 2169 3072 
Q 1681 3072 1420 2755 
Q 1159 2438 1159 1844 
L 1159 0 
L 581 0 
L 581 3500 
L 1159 3500 
L 1159 2956 
Q 1341 3275 1631 3429 
Q 1922 3584 2338 3584 
Q 2397 3584 2469 3576 
Q 2541 3569 2628 3553 
L 2631 2963 
z
" transform="scale(0.015625)"/>
       <path id="DejaVuSans-61" d="M 2194 1759 
Q 1497 1759 1228 1600 
Q 959 1441 959 1056 
Q 959 750 1161 570 
Q 1363 391 1709 391 
Q 2188 391 2477 730 
Q 2766 1069 2766 1631 
L 2766 1759 
L 2194 1759 
z
M 3341 1997 
L 3341 0 
L 2766 0 
L 2766 531 
Q 2569 213 2275 61 
Q 1981 -91 1556 -91 
Q 1019 -91 701 211 
Q 384 513 384 1019 
Q 384 1609 779 1909 
Q 1175 2209 1959 2209 
L 2766 2209 
L 2766 2266 
Q 2766 2663 2505 2880 
Q 2244 3097 1772 3097 
Q 1472 3097 1187 3025 
Q 903 2953 641 2809 
L 641 3341 
Q 956 3463 1253 3523 
Q 1550 3584 1831 3584 
Q 2591 3584 2966 3190 
Q 3341 2797 3341 1997 
z
" transform="scale(0.015625)"/>
       <path id="DejaVuSans-69" d="M 603 3500 
L 1178 3500 
L 1178 0 
L 603 0 
L 603 3500 
z
M 603 4863 
L 1178 4863 
L 1178 4134 
L 603 4134 
L 603 4863 
z
" transform="scale(0.015625)"/>
       <path id="DejaVuSans-6e" d="M 3513 2113 
L 3513 0 
L 2938 0 
L 2938 2094 
Q 2938 2591 2744 2837 
Q 2550 3084 2163 3084 
Q 1697 3084 1428 2787 
Q 1159 2491 1159 1978 
L 1159 0 
L 581 0 
L 581 3500 
L 1159 3500 
L 1159 2956 
Q 1366 3272 1645 3428 
Q 1925 3584 2291 3584 
Q 2894 3584 3203 3211 
Q 3513 2838 3513 2113 
z
" transform="scale(0.015625)"/>
       <path id="DejaVuSans-67" d="M 2906 1791 
Q 2906 2416 2648 2759 
Q 2391 3103 1925 3103 
Q 1463 3103 1205 2759 
Q 947 2416 947 1791 
Q 947 1169 1205 825 
Q 1463 481 1925 481 
Q 2391 481 2648 825 
Q 2906 1169 2906 1791 
z
M 3481 434 
Q 3481 -459 3084 -895 
Q 2688 -1331 1869 -1331 
Q 1566 -1331 1297 -1286 
Q 1028 -1241 775 -1147 
L 775 -588 
Q 1028 -725 1275 -790 
Q 1522 -856 1778 -856 
Q 2344 -856 2625 -561 
Q 2906 -266 2906 331 
L 2906 616 
Q 2728 306 2450 153 
Q 2172 0 1784 0 
Q 1141 0 747 490 
Q 353 981 353 1791 
Q 353 2603 747 3093 
Q 1141 3584 1784 3584 
Q 2172 3584 2450 3431 
Q 2728 3278 2906 2969 
L 2906 3500 
L 3481 3500 
L 3481 434 
z
" transform="scale(0.015625)"/>
       <path id="DejaVuSans-20" transform="scale(0.015625)"/>
       <path id="DejaVuSans-53" d="M 3425 4513 
L 3425 3897 
Q 3066 4069 2747 4153 
Q 2428 4238 2131 4238 
Q 1616 4238 1336 4038 
Q 1056 3838 1056 3469 
Q 1056 3159 1242 3001 
Q 1428 2844 1947 2747 
L 2328 2669 
Q 3034 2534 3370 2195 
Q 3706 1856 3706 1288 
Q 3706 609 3251 259 
Q 2797 -91 1919 -91 
Q 1588 -91 1214 -16 
Q 841 59 441 206 
L 441 856 
Q 825 641 1194 531 
Q 1563 422 1919 422 
Q 2459 422 2753 634 
Q 3047 847 3047 1241 
Q 3047 1584 2836 1778 
Q 2625 1972 2144 2069 
L 1759 2144 
Q 1053 2284 737 2584 
Q 422 2884 422 3419 
Q 422 4038 858 4394 
Q 1294 4750 2059 4750 
Q 2388 4750 2728 4690 
Q 3069 4631 3425 4513 
z
" transform="scale(0.015625)"/>
       <path id="DejaVuSans-74" d="M 1172 4494 
L 1172 3500 
L 2356 3500 
L 2356 3053 
L 1172 3053 
L 1172 1153 
Q 1172 725 1289 603 
Q 1406 481 1766 481 
L 2356 481 
L 2356 0 
L 1766 0 
Q 1100 0 847 248 
Q 594 497 594 1153 
L 594 3053 
L 172 3053 
L 172 3500 
L 594 3500 
L 594 4494 
L 1172 4494 
z
" transform="scale(0.015625)"/>
       <path id="DejaVuSans-65" d="M 3597 1894 
L 3597 1613 
L 953 1613 
Q 991 1019 1311 708 
Q 1631 397 2203 397 
Q 2534 397 2845 478 
Q 3156 559 3463 722 
L 3463 178 
Q 3153 47 2828 -22 
Q 2503 -91 2169 -91 
Q 1331 -91 842 396 
Q 353 884 353 1716 
Q 353 2575 817 3079 
Q 1281 3584 2069 3584 
Q 2775 3584 3186 3129 
Q 3597 2675 3597 1894 
z
M 3022 2063 
Q 3016 2534 2758 2815 
Q 2500 3097 2075 3097 
Q 1594 3097 1305 2825 
Q 1016 2553 972 2059 
L 3022 2063 
z
" transform="scale(0.015625)"/>
       <path id="DejaVuSans-70" d="M 1159 525 
L 1159 -1331 
L 581 -1331 
L 581 3500 
L 1159 3500 
L 1159 2969 
Q 1341 3281 1617 3432 
Q 1894 3584 2278 3584 
Q 2916 3584 3314 3078 
Q 3713 2572 3713 1747 
Q 3713 922 3314 415 
Q 2916 -91 2278 -91 
Q 1894 -91 1617 61 
Q 1341 213 1159 525 
z
M 3116 1747 
Q 3116 2381 2855 2742 
Q 2594 3103 2138 3103 
Q 1681 3103 1420 2742 
Q 1159 2381 1159 1747 
Q 1159 1113 1420 752 
Q 1681 391 2138 391 
Q 2594 391 2855 752 
Q 3116 1113 3116 1747 
z
" transform="scale(0.015625)"/>
       <path id="DejaVuSans-73" d="M 2834 3397 
L 2834 2853 
Q 2591 2978 2328 3040 
Q 2066 3103 1784 3103 
Q 1356 3103 1142 2972 
Q 928 2841 928 2578 
Q 928 2378 1081 2264 
Q 1234 2150 1697 2047 
L 1894 2003 
Q 2506 1872 2764 1633 
Q 3022 1394 3022 966 
Q 3022 478 2636 193 
Q 2250 -91 1575 -91 
Q 1294 -91 989 -36 
Q 684 19 347 128 
L 347 722 
Q 666 556 975 473 
Q 1284 391 1588 391 
Q 1994 391 2212 530 
Q 2431 669 2431 922 
Q 2431 1156 2273 1281 
Q 2116 1406 1581 1522 
L 1381 1569 
Q 847 1681 609 1914 
Q 372 2147 372 2553 
Q 372 3047 722 3315 
Q 1072 3584 1716 3584 
Q 2034 3584 2315 3537 
Q 2597 3491 2834 3397 
z
" transform="scale(0.015625)"/>
      </defs>
      <use xlink:href="#DejaVuSans-54"/>
      <use xlink:href="#DejaVuSans-72" x="46.333984"/>
      <use xlink:href="#DejaVuSans-61" x="87.447266"/>
      <use xlink:href="#DejaVuSans-69" x="148.726562"/>
      <use xlink:href="#DejaVuSans-6e" x="176.509766"/>
      <use xlink:href="#DejaVuSans-69" x="239.888672"/>
      <use xlink:href="#DejaVuSans-6e" x="267.671875"/>
      <use xlink:href="#DejaVuSans-67" x="331.050781"/>
      <use xlink:href="#DejaVuSans-20" x="394.527344"/>
      <use xlink:href="#DejaVuSans-53" x="426.314453"/>
      <use xlink:href="#DejaVuSans-74" x="489.791016"/>
      <use xlink:href="#DejaVuSans-65" x="529"/>
      <use xlink:href="#DejaVuSans-70" x="590.523438"/>
      <use xlink:href="#DejaVuSans-73" x="654"/>
     </g>
    </g>
   </g>
   <g id="matplotlib.axis_2">
    <g id="ytick_1">
     <g id="line2d_13">
      <path d="M 45 312.419145 
L 324 312.419145 
" clip-path="url(#p6c4b1ab22b)" style="fill: none; stroke: #b0b0b0; stroke-width: 0.8; stroke-linecap: square"/>
     </g>
     <g id="line2d_14">
      <defs>
       <path id="mce96480757" d="M 0 0 
L -3.5 0 
" style="stroke: #000000; stroke-width: 0.8"/>
      </defs>
      <g>
       <use xlink:href="#mce96480757" x="45" y="312.419145" style="stroke: #000000; stroke-width: 0.8"/>
      </g>
     </g>
     <g id="text_8">
      <!-- 0 -->
      <g transform="translate(31.6375 316.218363)scale(0.1 -0.1)">
       <use xlink:href="#DejaVuSans-30"/>
      </g>
     </g>
    </g>
    <g id="ytick_2">
     <g id="line2d_15">
      <path d="M 45 261.095316 
L 324 261.095316 
" clip-path="url(#p6c4b1ab22b)" style="fill: none; stroke: #b0b0b0; stroke-width: 0.8; stroke-linecap: square"/>
     </g>
     <g id="line2d_16">
      <g>
       <use xlink:href="#mce96480757" x="45" y="261.095316" style="stroke: #000000; stroke-width: 0.8"/>
      </g>
     </g>
     <g id="text_9">
      <!-- 100 -->
      <g transform="translate(18.9125 264.894534)scale(0.1 -0.1)">
       <use xlink:href="#DejaVuSans-31"/>
       <use xlink:href="#DejaVuSans-30" x="63.623047"/>
       <use xlink:href="#DejaVuSans-30" x="127.246094"/>
      </g>
     </g>
    </g>
    <g id="ytick_3">
     <g id="line2d_17">
      <path d="M 45 209.771487 
L 324 209.771487 
" clip-path="url(#p6c4b1ab22b)" style="fill: none; stroke: #b0b0b0; stroke-width: 0.8; stroke-linecap: square"/>
     </g>
     <g id="line2d_18">
      <g>
       <use xlink:href="#mce96480757" x="45" y="209.771487" style="stroke: #000000; stroke-width: 0.8"/>
      </g>
     </g>
     <g id="text_10">
      <!-- 200 -->
      <g transform="translate(18.9125 213.570706)scale(0.1 -0.1)">
       <use xlink:href="#DejaVuSans-32"/>
       <use xlink:href="#DejaVuSans-30" x="63.623047"/>
       <use xlink:href="#DejaVuSans-30" x="127.246094"/>
      </g>
     </g>
    </g>
    <g id="ytick_4">
     <g id="line2d_19">
      <path d="M 45 158.447658 
L 324 158.447658 
" clip-path="url(#p6c4b1ab22b)" style="fill: none; stroke: #b0b0b0; stroke-width: 0.8; stroke-linecap: square"/>
     </g>
     <g id="line2d_20">
      <g>
       <use xlink:href="#mce96480757" x="45" y="158.447658" style="stroke: #000000; stroke-width: 0.8"/>
      </g>
     </g>
     <g id="text_11">
      <!-- 300 -->
      <g transform="translate(18.9125 162.246877)scale(0.1 -0.1)">
       <use xlink:href="#DejaVuSans-33"/>
       <use xlink:href="#DejaVuSans-30" x="63.623047"/>
       <use xlink:href="#DejaVuSans-30" x="127.246094"/>
      </g>
     </g>
    </g>
    <g id="ytick_5">
     <g id="line2d_21">
      <path d="M 45 107.123829 
L 324 107.123829 
" clip-path="url(#p6c4b1ab22b)" style="fill: none; stroke: #b0b0b0; stroke-width: 0.8; stroke-linecap: square"/>
     </g>
     <g id="line2d_22">
      <g>
       <use xlink:href="#mce96480757" x="45" y="107.123829" style="stroke: #000000; stroke-width: 0.8"/>
      </g>
     </g>
     <g id="text_12">
      <!-- 400 -->
      <g transform="translate(18.9125 110.923048)scale(0.1 -0.1)">
       <use xlink:href="#DejaVuSans-34"/>
       <use xlink:href="#DejaVuSans-30" x="63.623047"/>
       <use xlink:href="#DejaVuSans-30" x="127.246094"/>
      </g>
     </g>
    </g>
    <g id="ytick_6">
     <g id="line2d_23">
      <path d="M 45 55.8 
L 324 55.8 
" clip-path="url(#p6c4b1ab22b)" style="fill: none; stroke: #b0b0b0; stroke-width: 0.8; stroke-linecap: square"/>
     </g>
     <g id="line2d_24">
      <g>
       <use xlink:href="#mce96480757" x="45" y="55.8" style="stroke: #000000; stroke-width: 0.8"/>
      </g>
     </g>
     <g id="text_13">
      <!-- 500 -->
      <g transform="translate(18.9125 59.599219)scale(0.1 -0.1)">
       <use xlink:href="#DejaVuSans-35"/>
       <use xlink:href="#DejaVuSans-30" x="63.623047"/>
       <use xlink:href="#DejaVuSans-30" x="127.246094"/>
      </g>
     </g>
    </g>
    <g id="text_14">
     <!-- Reward -->
     <g transform="translate(12.832812 200.421094)rotate(-90)scale(0.1 -0.1)">
      <defs>
       <path id="DejaVuSans-52" d="M 2841 2188 
Q 3044 2119 3236 1894 
Q 3428 1669 3622 1275 
L 4263 0 
L 3584 0 
L 2988 1197 
Q 2756 1666 2539 1819 
Q 2322 1972 1947 1972 
L 1259 1972 
L 1259 0 
L 628 0 
L 628 4666 
L 2053 4666 
Q 2853 4666 3247 4331 
Q 3641 3997 3641 3322 
Q 3641 2881 3436 2590 
Q 3231 2300 2841 2188 
z
M 1259 4147 
L 1259 2491 
L 2053 2491 
Q 2509 2491 2742 2702 
Q 2975 2913 2975 3322 
Q 2975 3731 2742 3939 
Q 2509 4147 2053 4147 
L 1259 4147 
z
" transform="scale(0.015625)"/>
       <path id="DejaVuSans-77" d="M 269 3500 
L 844 3500 
L 1563 769 
L 2278 3500 
L 2956 3500 
L 3675 769 
L 4391 3500 
L 4966 3500 
L 4050 0 
L 3372 0 
L 2619 2869 
L 1863 0 
L 1184 0 
L 269 3500 
z
" transform="scale(0.015625)"/>
       <path id="DejaVuSans-64" d="M 2906 2969 
L 2906 4863 
L 3481 4863 
L 3481 0 
L 2906 0 
L 2906 525 
Q 2725 213 2448 61 
Q 2172 -91 1784 -91 
Q 1150 -91 751 415 
Q 353 922 353 1747 
Q 353 2572 751 3078 
Q 1150 3584 1784 3584 
Q 2172 3584 2448 3432 
Q 2725 3281 2906 2969 
z
M 947 1747 
Q 947 1113 1208 752 
Q 1469 391 1925 391 
Q 2381 391 2643 752 
Q 2906 1113 2906 1747 
Q 2906 2381 2643 2742 
Q 2381 3103 1925 3103 
Q 1469 3103 1208 2742 
Q 947 2381 947 1747 
z
" transform="scale(0.015625)"/>
      </defs>
      <use xlink:href="#DejaVuSans-52"/>
      <use xlink:href="#DejaVuSans-65" x="64.982422"/>
      <use xlink:href="#DejaVuSans-77" x="126.505859"/>
      <use xlink:href="#DejaVuSans-61" x="208.292969"/>
      <use xlink:href="#DejaVuSans-72" x="269.572266"/>
      <use xlink:href="#DejaVuSans-64" x="308.935547"/>
     </g>
    </g>
   </g>
   <g id="line2d_25">
    <path d="M 57.681818 305.747047 
L 57.864912 302.667617 
L 57.93103 305.747047 
L 58.042921 301.127902 
L 58.226015 306.773523 
L 58.30739 304.207332 
L 58.500656 292.91609 
L 58.54643 307.8 
L 58.653235 307.286762 
L 58.810899 296.508758 
L 58.943134 299.074949 
L 59.055025 306.773523 
L 59.156744 302.154379 
L 59.365268 306.773523 
L 59.746714 284.704277 
L 59.878949 306.773523 
L 60.01627 298.561711 
L 60.255309 305.233809 
L 60.336684 304.207332 
L 60.402802 305.747047 
L 60.535037 299.074949 
L 60.662185 299.588187 
L 60.738475 304.72057 
L 60.941913 301.641141 
L 61.063975 306.260285 
L 61.262328 302.154379 
L 61.328445 305.747047 
L 61.506453 294.455804 
L 61.577656 305.233809 
L 61.755665 294.455804 
L 61.898071 298.048473 
L 61.984533 303.694094 
L 62.106595 300.101426 
L 62.218486 301.127902 
L 62.284604 305.747047 
L 62.386323 302.154379 
L 62.47787 303.180855 
L 62.594847 306.773523 
L 62.706738 301.127902 
L 62.818628 301.127902 
L 62.920347 302.154379 
L 62.981379 306.260285 
L 63.052582 305.233809 
L 63.164473 301.127902 
L 63.25602 303.180855 
L 63.357739 302.154379 
L 63.428943 305.233809 
L 63.601865 303.694094 
L 63.652724 307.286762 
L 63.7341 304.207332 
L 63.795131 306.260285 
L 64.13589 291.376375 
L 64.374929 306.773523 
L 64.48682 301.127902 
L 64.624141 306.260285 
L 64.695344 305.233809 
L 64.746204 307.286762 
L 64.832665 303.694094 
L 64.908954 304.72057 
L 65.000501 303.180855 
L 65.158166 296.508758 
L 65.34126 293.942566 
L 65.397205 306.773523 
L 65.458237 306.260285 
L 65.656589 300.614664 
L 65.74305 303.694094 
L 65.98209 299.588187 
L 66.053293 305.233809 
L 66.160098 301.641141 
L 66.231301 305.233809 
L 66.307591 304.72057 
L 66.373708 305.747047 
L 66.444911 305.233809 
L 66.551716 301.641141 
L 66.633091 304.207332 
L 66.734811 302.154379 
L 66.8111 304.72057 
L 66.938249 299.588187 
L 67.126429 306.773523 
L 67.18746 306.260285 
L 67.233234 307.8 
L 67.380726 297.535234 
L 67.528219 297.535234 
L 67.635024 301.641141 
L 67.80286 295.482281 
L 67.874063 305.233809 
L 68.001212 299.588187 
L 68.108017 301.641141 
L 68.245338 298.561711 
L 68.336885 303.180855 
L 68.555581 290.349898 
L 68.830222 305.233809 
L 69.196411 275.465988 
L 69.24727 307.286762 
L 69.410021 295.995519 
L 69.557513 297.535234 
L 69.659232 302.154379 
L 69.801639 298.048473 
L 69.86267 306.260285 
L 69.944045 304.207332 
L 70.015249 305.233809 
L 70.122054 301.641141 
L 70.28989 304.72057 
L 70.386523 302.667617 
L 70.467898 304.207332 
L 70.854431 273.413035 
L 70.910376 306.773523 
L 71.179931 285.217515 
L 71.322338 307.286762 
L 71.581722 294.969043 
L 71.724128 298.048473 
L 71.800417 304.72057 
L 71.891965 303.180855 
L 72.105574 290.863136 
L 72.314098 291.376375 
L 72.53788 289.83666 
L 72.787092 302.154379 
L 73.031218 287.783707 
L 73.112593 304.207332 
L 73.336375 300.614664 
L 73.672047 278.545418 
L 73.809368 298.561711 
L 74.211158 289.83666 
L 74.312877 302.154379 
L 74.480713 295.482281 
L 74.541745 306.260285 
L 74.699409 296.508758 
L 74.923191 289.83666 
L 75.060512 306.260285 
L 75.304638 296.508758 
L 75.447044 298.048473 
L 75.645396 292.402851 
L 75.823404 294.455804 
L 76.0421 290.349898 
L 76.225195 303.180855 
L 76.372687 305.233809 
L 76.535438 295.995519 
L 76.68293 297.535234 
L 76.988087 281.624847 
L 77.425479 268.280652 
L 77.669605 302.667617 
L 77.847613 294.455804 
L 77.984934 298.561711 
L 78.173114 293.429328 
L 78.31552 298.048473 
L 78.381638 305.747047 
L 78.513872 299.074949 
L 78.57999 305.747047 
L 78.752912 294.969043 
L 78.834287 304.207332 
L 79.088585 298.048473 
L 79.251335 295.995519 
L 79.480203 301.127902 
L 79.602266 300.101426 
L 80.080345 264.174745 
L 80.344815 285.730754 
L 80.416018 305.233809 
L 80.507565 303.180855 
L 80.629628 300.101426 
L 80.716089 303.694094 
L 81.051762 278.545418 
L 81.290802 288.296945 
L 81.484068 306.260285 
L 81.65699 294.969043 
L 81.753623 302.667617 
L 82.374109 268.280652 
L 82.455484 304.207332 
L 82.638578 293.942566 
L 82.847102 291.376375 
L 83.137002 283.164562 
L 83.401471 302.667617 
L 83.518448 300.614664 
L 83.594737 304.72057 
L 84.042301 267.254175 
L 84.235567 304.207332 
L 84.3322 302.667617 
L 84.423747 303.180855 
L 84.779764 276.492464 
L 85.044233 285.730754 
L 85.156124 301.127902 
L 85.812212 267.254175 
L 86.010564 292.402851 
L 86.168228 296.508758 
L 86.463213 282.651324 
L 86.564932 302.154379 
L 86.803972 288.296945 
L 87.124387 299.074949 
L 87.4092 283.6778 
L 87.88728 264.174745 
L 88.060202 294.969043 
L 88.28907 289.323422 
L 88.482336 292.91609 
L 88.762063 284.191039 
L 88.833266 305.233809 
L 89.046876 290.863136 
L 89.250314 291.889613 
L 89.352033 302.154379 
L 89.616503 285.730754 
L 89.850457 301.127902 
L 90.181043 279.058656 
L 90.618435 268.280652 
L 90.821873 291.889613 
L 90.994796 294.969043 
L 91.17789 293.942566 
L 91.320296 298.048473 
L 91.477961 296.508758 
L 91.813634 278.545418 
L 91.869579 306.773523 
L 92.083189 290.863136 
L 92.484979 271.87332 
L 92.922371 268.280652 
L 93.21227 300.101426 
L 93.283473 305.233809 
L 93.558115 284.704277 
L 93.624232 305.747047 
L 93.751381 299.588187 
L 94.153171 271.87332 
L 94.554961 271.87332 
L 94.748227 292.91609 
L 94.926235 294.455804 
L 95.078814 297.021996 
L 95.307682 289.323422 
L 95.526378 290.349898 
L 95.689128 295.995519 
L 96.004457 280.598371 
L 96.233325 289.323422 
L 96.34013 301.641141 
L 96.55374 290.863136 
L 96.630029 304.72057 
L 97.240343 268.280652 
L 97.601446 275.979226 
L 97.672649 305.233809 
L 97.794712 300.101426 
L 98.115127 280.085132 
L 98.384682 301.641141 
L 98.598292 290.863136 
L 98.898363 299.074949 
L 99.061113 295.995519 
L 99.162832 302.154379 
L 99.427302 285.730754 
L 99.534107 301.641141 
L 99.65617 300.101426 
L 99.839264 293.942566 
L 99.966413 299.588187 
L 100.113905 297.535234 
L 100.495352 273.926273 
L 100.668274 294.969043 
L 101.334533 245.184929 
L 102.173715 297.535234 
L 102.377153 291.889613 
L 102.49413 300.614664 
L 102.667053 294.969043 
L 102.855233 293.429328 
L 102.997639 298.048473 
L 103.206163 291.376375 
L 103.445203 288.296945 
L 103.816477 274.952749 
L 104.238611 294.455804 
L 104.436963 292.402851 
L 104.686175 287.270468 
L 104.737034 307.286762 
L 104.920129 293.942566 
L 105.123567 291.889613 
L 105.347349 302.154379 
L 106.135671 259.042363 
L 106.659524 293.942566 
L 106.883306 289.83666 
L 107.096916 290.863136 
L 107.325783 289.323422 
L 107.65637 279.058656 
L 107.992043 300.614664 
L 108.231083 288.296945 
L 108.317544 303.694094 
L 108.51081 292.91609 
L 108.688818 294.455804 
L 108.96346 284.704277 
L 109.344906 294.455804 
L 109.497484 297.021996 
L 109.680579 293.942566 
L 109.797555 300.614664 
L 110.54519 264.174745 
L 111.150418 251.343788 
L 111.308083 296.508758 
L 111.547123 288.296945 
L 111.714959 295.482281 
L 112.025202 281.111609 
L 112.132007 301.641141 
L 112.498195 275.465988 
L 112.788095 300.101426 
L 113.062736 284.704277 
L 113.327205 285.730754 
L 114.018895 242.618737 
L 114.349481 279.058656 
L 114.817389 265.201222 
L 115.412445 252.370265 
L 115.961728 290.349898 
L 116.277057 280.598371 
L 116.572042 282.651324 
L 116.790738 290.349898 
L 116.984004 292.91609 
L 117.309505 279.571894 
L 117.462083 297.021996 
L 117.991022 259.042363 
L 118.443672 304.72057 
L 118.881063 285.730754 
L 118.967525 303.694094 
L 119.45069 263.661507 
L 119.979629 259.042363 
L 120.101692 300.101426 
L 120.274614 294.969043 
L 120.712006 268.280652 
L 121.068022 276.492464 
L 121.240945 294.969043 
L 121.612219 274.952749 
L 121.927548 298.561711 
L 122.359854 268.79389 
L 122.995598 248.264358 
L 123.209208 290.863136 
L 123.524537 280.598371 
L 124.165366 247.75112 
L 124.292515 299.588187 
L 124.633274 294.455804 
L 124.968947 278.545418 
L 125.365651 272.386558 
L 125.772527 271.360081 
L 125.940363 295.482281 
L 126.087856 297.535234 
L 126.479474 272.899796 
L 126.652396 294.969043 
L 127.105046 266.740937 
L 127.257624 297.021996 
L 127.944228 243.131976 
L 128.11715 294.969043 
L 128.702034 253.396741 
L 128.890215 293.429328 
L 130.009124 199.506721 
L 130.522805 260.582077 
L 130.680469 296.508758 
L 130.939853 286.243992 
L 131.102603 295.995519 
L 131.387416 283.6778 
L 131.626456 288.296945 
L 132.206254 253.90998 
L 132.435122 289.323422 
L 132.694506 286.243992 
L 133.06578 274.952749 
L 133.182757 300.614664 
L 133.73204 256.989409 
L 133.86936 298.561711 
L 134.149088 284.191039 
L 134.53562 273.413035 
L 134.74923 290.863136 
L 135.115418 275.465988 
L 136.056319 217.470061 
L 136.554742 262.121792 
L 137.44987 222.089206 
L 137.622792 304.207332 
L 137.933035 281.111609 
L 138.085614 297.021996 
L 138.909538 229.274542 
L 139.087546 294.455804 
L 139.27064 293.942566 
L 139.931814 245.698167 
L 140.491268 299.588187 
L 140.806597 280.598371 
L 141.157528 277.005703 
L 141.401653 287.783707 
L 141.716982 280.598371 
L 142.500219 233.380448 
L 143.217338 240.052546 
L 143.497065 284.191039 
L 143.741191 287.783707 
L 143.909027 295.482281 
L 144.712607 231.327495 
L 144.829584 300.614664 
L 144.966905 298.561711 
L 145.373781 271.360081 
L 145.958665 253.396741 
L 146.050212 303.180855 
L 146.538464 263.148269 
L 146.721558 293.942566 
L 147.540396 280.085132 
L 147.743834 291.889613 
L 148.120194 274.439511 
L 148.384664 285.730754 
L 148.623703 288.296945 
L 149.076353 266.740937 
L 149.305221 289.323422 
L 150.983585 192.834623 
L 151.166679 293.942566 
L 151.726133 255.962933 
L 151.960087 288.810183 
L 152.687378 239.026069 
L 153.465529 233.893686 
L 153.704568 288.296945 
L 154.040241 278.545418 
L 154.223335 293.942566 
L 154.401343 294.455804 
L 155.21001 263.148269 
L 155.581284 274.952749 
L 156.150911 254.936456 
L 156.344177 292.91609 
L 156.969749 249.290835 
L 157.503773 258.529124 
L 157.824188 280.085132 
L 158.068314 287.783707 
L 159.232997 194.887576 
L 159.934858 241.592261 
L 160.08235 297.535234 
L 160.733352 272.899796 
L 161.12497 272.899796 
L 161.419956 282.651324 
L 161.831918 270.846843 
L 162.182848 277.005703 
L 163.011858 228.761303 
L 163.276328 285.730754 
L 164.420666 196.94053 
L 164.776683 276.492464 
L 165.636209 225.681874 
L 166.185491 256.989409 
L 166.394015 291.376375 
L 166.582196 293.429328 
L 166.699172 300.614664 
L 166.999243 282.138086 
L 167.507839 261.095316 
L 168.784412 183.596334 
L 169.664282 223.628921 
L 170.798449 197.967006 
L 170.951027 297.021996 
L 171.515568 255.449695 
L 171.963131 267.254175 
L 172.471726 292.402851 
L 173.834761 174.871283 
L 174.694287 225.681874 
L 175.843712 196.427291 
L 176.596433 236.459878 
L 177.349153 236.459878 
L 177.694998 277.518941 
L 178.040843 277.518941 
L 178.229023 293.429328 
L 178.976657 236.973116 
L 180.197286 189.241955 
L 180.751654 256.476171 
L 182.923355 181.030143 
L 183.304802 273.926273 
L 184.006663 241.592261 
L 184.566117 255.962933 
L 185.247635 243.645214 
L 186.041043 232.353971 
L 187.43968 244.67169 
L 187.805868 275.465988 
L 189.016324 190.268432 
L 190.145405 198.480244 
L 191.152424 210.797963 
L 191.752566 251.857026 
L 192.723982 214.390631 
L 193.120687 272.386558 
L 193.939525 229.78778 
L 194.407432 265.201222 
L 196.197687 131.759267 
L 197.001267 231.327495 
L 197.230135 289.323422 
L 198.013371 233.380448 
L 198.537224 259.555601 
L 199.147538 250.83055 
L 199.539156 272.899796 
L 200.088439 256.989409 
L 200.612292 259.555601 
L 201.436216 229.274542 
L 201.639654 291.889613 
L 202.244882 251.343788 
L 202.743305 294.455804 
L 203.89273 196.427291 
L 204.340294 267.254175 
L 205.031983 242.618737 
L 205.662641 248.777597 
L 206.308557 247.237882 
L 207.681763 173.844807 
L 208.505688 229.274542 
L 209.466932 215.417108 
L 210.331544 225.168635 
L 210.540068 291.376375 
L 211.038491 262.121792 
L 212.065853 208.74501 
L 212.20826 298.048473 
L 213.525521 179.490428 
L 214.034116 261.095316 
L 214.598657 255.449695 
L 215.31069 240.565784 
L 216.012551 241.592261 
L 217.889267 123.034216 
L 218.921715 208.231772 
L 219.298075 274.439511 
L 219.882959 253.396741 
L 220.864548 213.364155 
L 221.830878 214.90387 
L 223.636391 130.219552 
L 224.1399 261.608554 
L 224.984168 227.221589 
L 226.057304 204.125866 
L 227.049064 212.337678 
L 227.24233 292.91609 
L 228.651138 170.252138 
L 229.154648 261.608554 
L 229.963314 230.814257 
L 230.476995 260.582077 
L 231.021191 257.502648 
L 232.348625 178.463951 
L 233.091173 237.486354 
L 233.401416 281.111609 
L 234.082934 243.645214 
L 234.993319 220.549491 
L 236.692027 140.997556 
L 237.632927 217.470061 
L 239.133283 242.105499 
L 239.845316 240.565784 
L 240.770959 219.009776 
L 241.839009 204.639104 
L 242.693448 226.195112 
L 244.259921 154.341752 
L 244.921095 245.698167 
L 245.851824 218.496538 
L 246.833412 273.413035 
L 247.32675 262.635031 
L 248.435487 200.533198 
L 249.178036 237.486354 
L 250.088421 220.549491 
L 251.110697 209.258248 
L 251.87359 235.433401 
L 253.206109 177.950713 
L 253.958829 236.459878 
L 254.569143 250.83055 
L 255.682967 200.019959 
L 256.328882 247.237882 
L 258.042848 139.457841 
L 258.800654 235.94664 
L 259.441484 247.75112 
L 260.067056 249.290835 
L 260.738402 244.67169 
L 261.95903 189.241955 
L 262.142124 293.942566 
L 263.311893 194.374338 
L 263.983238 244.67169 
L 265.214038 188.215479 
L 265.737891 259.555601 
L 266.348205 250.83055 
L 267.116184 234.920163 
L 267.675638 255.962933 
L 269.226853 155.881466 
L 270.335591 200.533198 
L 271.423984 202.586151 
L 272.227564 231.327495 
L 273.122692 222.089206 
L 273.67706 256.476171 
L 274.200913 259.555601 
L 274.765454 255.449695 
L 275.258791 262.635031 
L 275.589378 279.058656 
L 276.316669 239.026069 
L 276.83035 260.582077 
L 277.735649 221.062729 
L 278.686722 216.443585 
L 279.271606 253.396741 
L 279.927694 246.211405 
L 280.553266 249.290835 
L 281.143236 252.883503 
L 281.870527 239.026069 
L 283.131843 185.136049 
L 284.037142 221.062729 
L 284.627112 252.883503 
L 285.196739 254.936456 
L 285.776537 253.90998 
L 286.08678 281.111609 
L 286.371593 283.6778 
L 287.109056 237.999593 
L 288.634841 158.447658 
L 289.407906 234.406925 
L 290.536987 198.480244 
L 291.213419 244.158452 
L 291.747443 258.529124 
L 292.779891 208.231772 
L 293.425807 247.237882 
L 294.96685 156.907943 
L 297.341989 72.736864 
L 298.104882 235.433401 
L 299.025439 219.523014 
L 299.615409 252.883503 
L 300.688545 204.125866 
L 301.792196 201.046436 
L 302.661894 224.655397 
L 303.765545 201.046436 
L 304.772563 210.797963 
L 305.662605 222.602444 
L 306.873061 190.268432 
L 308.424276 155.881466 
L 309.293973 224.655397 
L 311.318182 108.150305 
L 311.318182 108.150305 
" clip-path="url(#p6c4b1ab22b)" style="fill: none; stroke: #0000ff; stroke-width: 1.5; stroke-linecap: square"/>
   </g>
   <g id="line2d_26">
    <path d="M 57.71742 302.154379 
L 57.895428 307.286762 
L 58.058179 304.207332 
L 58.114124 306.773523 
L 58.190413 304.72057 
L 58.241273 307.286762 
L 58.297218 306.773523 
L 58.454883 304.207332 
L 58.637977 302.667617 
L 58.744782 301.641141 
L 58.810899 305.747047 
L 58.882103 305.233809 
L 58.953306 305.233809 
L 59.019423 305.747047 
L 59.177088 296.508758 
L 59.344924 305.233809 
L 59.528018 303.180855 
L 59.619565 303.180855 
L 59.746714 307.286762 
L 60.006098 297.535234 
L 60.158676 307.286762 
L 60.224794 305.747047 
L 60.326513 302.154379 
L 60.402802 304.72057 
L 60.652013 298.561711 
L 61.094491 267.767413 
L 61.333531 288.296945 
L 61.531883 292.402851 
L 61.725149 304.207332 
L 62.035392 281.111609 
L 62.147283 301.127902 
L 62.304947 296.508758 
L 62.411752 301.641141 
L 62.559245 297.535234 
L 62.721995 306.773523 
L 62.813542 303.180855 
L 63.291622 280.085132 
L 63.713756 269.820367 
L 64.095202 297.021996 
L 64.202007 301.641141 
L 64.461391 299.074949 
L 64.664829 291.889613 
L 64.812321 306.773523 
L 65.046275 299.588187 
L 65.483667 268.280652 
L 65.987176 261.608554 
L 66.297419 281.111609 
L 66.414396 300.614664 
L 66.922991 261.095316 
L 67.045054 300.101426 
L 67.599422 256.476171 
L 67.85372 286.75723 
L 68.458948 251.343788 
L 68.596268 298.561711 
L 68.743761 297.535234 
L 68.87091 299.588187 
L 69.140465 285.217515 
L 69.257442 300.614664 
L 69.394763 298.561711 
L 69.593115 292.402851 
L 70.020335 269.307128 
L 70.284804 285.730754 
L 70.874774 252.883503 
L 71.225705 277.005703 
L 71.688527 265.71446 
L 72.156434 265.201222 
L 72.619256 265.71446 
L 72.985444 275.465988 
L 73.351632 275.465988 
L 73.483867 299.074949 
L 73.956861 264.687984 
L 74.419682 265.71446 
L 74.816386 272.386558 
L 75.004566 293.429328 
L 75.233434 289.323422 
L 76.204851 214.390631 
L 76.810079 251.343788 
L 76.932142 300.101426 
L 77.608573 244.158452 
L 78.732568 198.993483 
L 78.920748 293.429328 
L 79.485289 255.449695 
L 80.110861 249.290835 
L 80.339729 289.323422 
L 81.321317 213.364155 
L 82.099468 233.893686 
L 82.567375 265.201222 
L 83.218377 246.724644 
L 83.711714 262.635031 
L 85.278187 154.341752 
L 87.149817 123.547454 
L 88.42639 183.596334 
L 88.858696 268.79389 
L 90.08441 188.728717 
L 91.096515 210.284725 
L 92.378174 183.083096 
L 93.837842 165.119756 
L 94.738055 221.575967 
L 95.765417 208.74501 
L 96.965702 191.294908 
L 98.013408 206.692057 
L 98.842418 228.761303 
L 99.076371 288.810183 
L 101.019204 116.362118 
L 102.244919 188.728717 
L 103.546922 181.030143 
L 104.76755 189.241955 
L 105.581302 230.301018 
L 106.562891 213.364155 
L 107.22915 245.184929 
L 107.763175 258.529124 
L 109.375422 149.722607 
L 110.006079 248.777597 
L 110.35701 277.005703 
L 111.679357 231.840733 
L 112.345617 245.184929 
L 113.596761 186.162525 
L 114.898764 181.030143 
L 115.595539 242.105499 
L 116.277057 243.645214 
L 117.309505 208.231772 
L 118.133429 229.274542 
L 119.0489 220.036253 
L 121.29689 85.567821 
L 122.354768 205.66558 
L 123.377044 209.258248 
L 124.307773 218.496538 
L 125.84373 157.421181 
L 126.937209 202.072912 
L 128.554542 149.209369 
L 131.061916 59.392668 
L 133.203101 96.345825 
L 133.879532 244.158452 
L 134.77466 222.089206 
L 135.593498 229.78778 
L 136.732751 197.453768 
L 138.060184 178.463951 
L 139.179093 199.506721 
L 139.652086 264.687984 
L 140.811683 195.400815 
L 141.605091 232.353971 
L 143.497065 211.82444 
L 144.417622 219.523014 
L 146.157017 136.89165 
L 148.165968 109.69002 
L 149.19333 208.74501 
L 150.001996 230.814257 
L 152.544971 55.8 
L 157.630922 55.8 
L 158.510792 223.628921 
L 160.163726 145.616701 
L 161.898035 137.404888 
L 162.828764 218.496538 
L 163.444164 250.317312 
L 164.817371 173.844807 
L 167.161994 75.816293 
L 168.214786 206.178819 
L 168.860701 247.237882 
L 170.284768 168.712424 
L 171.50031 189.755193 
L 172.659907 195.400815 
L 174.048371 172.305092 
L 175.630102 152.802037 
L 177.91878 81.461914 
L 180.263403 75.816293 
L 181.717985 165.632994 
L 183.223426 160.500611 
L 184.062608 227.734827 
L 186.605584 55.8 
L 189.148559 55.8 
L 190.86761 138.944603 
L 192.403567 157.421181 
L 194.931285 57.339715 
L 196.563875 147.669654 
L 197.799761 187.70224 
L 198.455849 246.211405 
L 199.691735 187.70224 
L 200.769956 203.612627 
L 202.061788 182.056619 
L 202.829766 234.920163 
L 203.933418 201.046436 
L 205.611782 143.050509 
L 206.684917 204.125866 
L 207.457982 234.406925 
L 207.925889 265.201222 
L 208.531117 251.343788 
L 209.248236 240.052546 
L 209.543221 282.651324 
L 210.621443 203.612627 
L 213.164418 55.8 
L 215.707394 55.8 
L 217.757032 105.584114 
L 219.292989 157.421181 
L 220.87472 152.802037 
L 223.158312 81.975153 
L 224.734956 153.315275 
L 226.423492 142.024033 
L 227.628862 190.78167 
L 228.320552 242.618737 
L 229.317398 211.82444 
L 229.907368 252.883503 
L 230.741464 228.248065 
L 231.748482 210.797963 
L 232.541891 232.353971 
L 233.574339 208.231772 
L 234.48981 220.036253 
L 235.496828 210.797963 
L 236.590308 202.072912 
L 237.546466 215.930346 
L 238.833212 182.569857 
L 240.745529 119.441548 
L 241.986501 187.189002 
L 244.529477 55.8 
L 246.121379 151.77556 
L 247.367437 186.675764 
L 248.466003 201.559674 
L 249.406903 217.470061 
L 250.464781 205.66558 
L 251.405682 217.470061 
L 252.326239 219.523014 
L 253.231538 221.062729 
L 254.467424 187.70224 
L 255.586334 199.506721 
L 256.79679 190.268432 
L 258.134395 177.437475 
L 259.71104 153.315275 
L 262.254015 55.8 
L 277.511867 55.8 
L 279.236005 138.431365 
L 280.853337 149.209369 
L 283.396312 55.8 
L 288.482263 55.8 
L 290.679394 90.700204 
L 293.222369 55.8 
L 300.851295 55.8 
L 302.219416 174.358045 
L 304.762391 55.8 
L 309.848342 55.8 
L 309.848342 55.8 
" clip-path="url(#p6c4b1ab22b)" style="fill: none; stroke: #ff0000; stroke-width: 1.5; stroke-linecap: square"/>
   </g>
   <g id="patch_3">
    <path d="M 45 320.4 
L 45 43.2 
" style="fill: none; stroke: #000000; stroke-width: 0.8; stroke-linejoin: miter; stroke-linecap: square"/>
   </g>
   <g id="patch_4">
    <path d="M 324 320.4 
L 324 43.2 
" style="fill: none; stroke: #000000; stroke-width: 0.8; stroke-linejoin: miter; stroke-linecap: square"/>
   </g>
   <g id="patch_5">
    <path d="M 45 320.4 
L 324 320.4 
" style="fill: none; stroke: #000000; stroke-width: 0.8; stroke-linejoin: miter; stroke-linecap: square"/>
   </g>
   <g id="patch_6">
    <path d="M 45 43.2 
L 324 43.2 
" style="fill: none; stroke: #000000; stroke-width: 0.8; stroke-linejoin: miter; stroke-linecap: square"/>
   </g>
   <g id="legend_1">
    <g id="patch_7">
     <path d="M 52 80.55625 
L 104.185937 80.55625 
Q 106.185937 80.55625 106.185937 78.55625 
L 106.185937 50.2 
Q 106.185937 48.2 104.185937 48.2 
L 52 48.2 
Q 50 48.2 50 50.2 
L 50 78.55625 
Q 50 80.55625 52 80.55625 
z
" style="fill: #ffffff; opacity: 0.8; stroke: #cccccc; stroke-linejoin: miter"/>
    </g>
    <g id="line2d_27">
     <path d="M 54 56.298437 
L 64 56.298437 
L 74 56.298437 
" style="fill: none; stroke: #0000ff; stroke-width: 1.5; stroke-linecap: square"/>
    </g>
    <g id="text_15">
     <!-- A2C -->
     <g transform="translate(82 59.798437)scale(0.1 -0.1)">
      <defs>
       <path id="DejaVuSans-41" d="M 2188 4044 
L 1331 1722 
L 3047 1722 
L 2188 4044 
z
M 1831 4666 
L 2547 4666 
L 4325 0 
L 3669 0 
L 3244 1197 
L 1141 1197 
L 716 0 
L 50 0 
L 1831 4666 
z
" transform="scale(0.015625)"/>
       <path id="DejaVuSans-43" d="M 4122 4306 
L 4122 3641 
Q 3803 3938 3442 4084 
Q 3081 4231 2675 4231 
Q 1875 4231 1450 3742 
Q 1025 3253 1025 2328 
Q 1025 1406 1450 917 
Q 1875 428 2675 428 
Q 3081 428 3442 575 
Q 3803 722 4122 1019 
L 4122 359 
Q 3791 134 3420 21 
Q 3050 -91 2638 -91 
Q 1578 -91 968 557 
Q 359 1206 359 2328 
Q 359 3453 968 4101 
Q 1578 4750 2638 4750 
Q 3056 4750 3426 4639 
Q 3797 4528 4122 4306 
z
" transform="scale(0.015625)"/>
      </defs>
      <use xlink:href="#DejaVuSans-41"/>
      <use xlink:href="#DejaVuSans-32" x="68.408203"/>
      <use xlink:href="#DejaVuSans-43" x="132.03125"/>
     </g>
    </g>
    <g id="line2d_28">
     <path d="M 54 70.976562 
L 64 70.976562 
L 74 70.976562 
" style="fill: none; stroke: #ff0000; stroke-width: 1.5; stroke-linecap: square"/>
    </g>
    <g id="text_16">
     <!-- PPO -->
     <g transform="translate(82 74.476562)scale(0.1 -0.1)">
      <defs>
       <path id="DejaVuSans-50" d="M 1259 4147 
L 1259 2394 
L 2053 2394 
Q 2494 2394 2734 2622 
Q 2975 2850 2975 3272 
Q 2975 3691 2734 3919 
Q 2494 4147 2053 4147 
L 1259 4147 
z
M 628 4666 
L 2053 4666 
Q 2838 4666 3239 4311 
Q 3641 3956 3641 3272 
Q 3641 2581 3239 2228 
Q 2838 1875 2053 1875 
L 1259 1875 
L 1259 0 
L 628 0 
L 628 4666 
z
" transform="scale(0.015625)"/>
       <path id="DejaVuSans-4f" d="M 2522 4238 
Q 1834 4238 1429 3725 
Q 1025 3213 1025 2328 
Q 1025 1447 1429 934 
Q 1834 422 2522 422 
Q 3209 422 3611 934 
Q 4013 1447 4013 2328 
Q 4013 3213 3611 3725 
Q 3209 4238 2522 4238 
z
M 2522 4750 
Q 3503 4750 4090 4092 
Q 4678 3434 4678 2328 
Q 4678 1225 4090 567 
Q 3503 -91 2522 -91 
Q 1538 -91 948 565 
Q 359 1222 359 2328 
Q 359 3434 948 4092 
Q 1538 4750 2522 4750 
z
" transform="scale(0.015625)"/>
      </defs>
      <use xlink:href="#DejaVuSans-50"/>
      <use xlink:href="#DejaVuSans-50" x="60.302734"/>
      <use xlink:href="#DejaVuSans-4f" x="120.605469"/>
     </g>
    </g>
   </g>
  </g>
 </g>
 <defs>
  <clipPath id="p6c4b1ab22b">
   <rect x="45" y="43.2" width="279" height="277.2"/>
  </clipPath>
 </defs>
</svg>
